<svg xmlns="http://www.w3.org/2000/svg" xmlns:xlink="http://www.w3.org/1999/xlink" width="800" zoomAndPan="magnify" viewBox="0 0 600 112.499997" height="150" preserveAspectRatio="xMidYMid meet" version="1.0"><defs><clipPath id="a060128aa6"><path d="M 3 77 L 17.21875 77 L 17.21875 83.257812 L 3 83.257812 Z M 3 77 " clip-rule="nonzero"/></clipPath><clipPath id="264b07867a"><path d="M 209 86.230469 L 222.785156 86.230469 L 222.785156 99.90625 L 209 99.90625 Z M 209 86.230469 " clip-rule="nonzero"/></clipPath><clipPath id="d5a20c34fe"><path d="M 581.289062 50 L 595.859375 50 L 595.859375 56.496094 L 581.289062 56.496094 Z M 581.289062 50 " clip-rule="nonzero"/></clipPath><clipPath id="84bc9f0c8e"><path d="M 376 33.878906 L 389 33.878906 L 389 47.574219 L 376 47.574219 Z M 376 33.878906 " clip-rule="nonzero"/></clipPath><clipPath id="c0a947332c"><path d="M 512.765625 69 L 526.671875 69 L 526.671875 77.546875 L 512.765625 77.546875 Z M 512.765625 69 " clip-rule="nonzero"/></clipPath></defs><path fill="#000000" d="M 213.972656 79.882812 C 211.15625 78.542969 209.625 76.730469 208.207031 74.535156 C 207.289062 73.140625 207.644531 73.65625 207.324219 73.316406 C 207.214844 73.210938 207.140625 73.089844 207.09375 72.949219 C 207.046875 72.808594 207.035156 72.664062 207.0625 72.515625 C 207.089844 72.375 207.148438 72.242188 207.242188 72.125 C 207.332031 72.011719 207.441406 71.921875 207.578125 71.863281 C 208.195312 71.550781 209.019531 71.59375 209.707031 71.683594 C 212.050781 72.003906 214.140625 72.90625 215.980469 74.394531 C 218.011719 76.039062 219.6875 77.996094 221 80.261719 C 221.226562 80.648438 221.335938 80.785156 221.191406 81.085938 C 221.070312 81.277344 220.894531 81.367188 220.671875 81.355469 C 220.671875 81.285156 220.699219 80.847656 220.671875 81.355469 C 218.328125 81.359375 216.097656 80.867188 213.972656 79.882812 Z M 208.488281 73.363281 Z M 208.488281 73.363281 Z M 213.453125 74.574219 C 212.953125 74.308594 212.433594 74.082031 211.894531 73.898438 C 211.160156 73.65625 210.40625 73.480469 209.640625 73.375 C 210.265625 74.429688 210.984375 75.417969 211.792969 76.339844 C 213.304688 78.015625 215.808594 79.523438 219.046875 80.121094 C 219.457031 80.199219 219.539062 80.203125 219.609375 80.21875 C 218.078125 78.113281 215.8125 75.789062 213.445312 74.578125 Z M 207.539062 73.511719 Z M 207.539062 73.511719 " fill-opacity="1" fill-rule="evenodd"/><path fill="#000000" d="M 243.015625 95.953125 C 242.8125 95.949219 242.628906 95.886719 242.460938 95.769531 C 242.296875 95.65625 242.191406 95.503906 242.136719 95.316406 C 241.75 93.984375 243.289062 92.472656 244.089844 91.320312 C 244.839844 90.117188 245.660156 88.972656 246.5625 87.875 C 248.027344 86.214844 249.496094 85.285156 251.65625 84.394531 C 252.859375 83.898438 253.929688 83.542969 254.046875 83.5 L 254.1875 83.5 L 254.410156 83.371094 L 254.792969 83.460938 L 255.023438 83.78125 C 255.136719 84.273438 255.195312 84.773438 255.199219 85.277344 C 255.199219 87.210938 254.394531 88.933594 253.070312 90.410156 C 250.433594 93.347656 246.496094 94.597656 244.503906 95.433594 C 243.421875 95.867188 243.347656 95.953125 243.015625 95.953125 Z M 248.804688 91.699219 C 251.78125 90.074219 254.125 87.777344 254.019531 84.628906 C 249.441406 86.507812 248.195312 87.738281 245.839844 91.746094 C 245.476562 92.347656 245.078125 92.929688 244.644531 93.484375 C 246.078125 92.984375 247.460938 92.386719 248.804688 91.6875 Z M 243.9375 94.886719 Z M 243.9375 94.886719 Z M 243.9375 94.886719 Z M 243.9375 94.886719 Z M 243.9375 94.886719 " fill-opacity="1" fill-rule="evenodd"/><path fill="#000000" d="M 259.902344 77.101562 C 259.378906 77.1875 257.410156 77.324219 256.566406 77.355469 C 254.050781 77.449219 250.699219 77.355469 248.410156 76.425781 C 247.222656 75.835938 246.101562 75.132812 245.050781 74.316406 C 243.855469 73.378906 244.40625 73.800781 243.777344 73.289062 C 242.882812 72.5625 243.140625 72.8125 242.765625 72.597656 C 242.640625 72.546875 242.535156 72.476562 242.445312 72.375 C 242.359375 72.273438 242.292969 72.160156 242.257812 72.035156 C 242.21875 71.90625 242.214844 71.777344 242.230469 71.644531 C 242.253906 71.515625 242.300781 71.394531 242.378906 71.28125 C 242.875 70.648438 244.351562 70.636719 245.199219 70.664062 C 246.8125 70.765625 249.179688 71.050781 249.757812 71.160156 C 254.296875 71.882812 256.675781 73.867188 259.894531 75.988281 C 260.230469 76.214844 260.308594 76.238281 260.394531 76.460938 C 260.433594 76.582031 260.421875 76.699219 260.363281 76.8125 C 260.269531 76.996094 260.121094 77.09375 259.910156 77.109375 C 259.894531 77.023438 259.882812 76.929688 259.902344 77.101562 Z M 258.085938 76.148438 C 254.980469 74.238281 252.683594 72.972656 248.953125 72.621094 C 248.601562 72.578125 245.722656 72.355469 245.449219 72.355469 C 246.339844 73.101562 248.246094 74.554688 249.113281 74.949219 C 251.570312 76.042969 255.371094 76.148438 258.085938 76.148438 Z M 243.582031 72.511719 Z M 243.105469 72.769531 Z M 243.105469 72.769531 Z M 243.105469 72.769531 " fill-opacity="1" fill-rule="evenodd"/><path fill="#000000" d="M 191.171875 75.617188 C 190.707031 75.019531 189.65625 73.554688 189.414062 72.847656 C 189.328125 72.644531 189.316406 72.441406 189.371094 72.226562 C 189.429688 72.019531 189.542969 71.847656 189.71875 71.714844 C 189.972656 71.539062 190.25 71.417969 190.558594 71.351562 C 191.59375 71.199219 192.617188 71.253906 193.628906 71.519531 C 198.1875 72.585938 199.953125 76.324219 202.46875 79.128906 C 202.6875 79.378906 202.8125 79.46875 202.742188 79.785156 C 202.703125 79.90625 202.628906 79.996094 202.527344 80.0625 C 202.445312 80.113281 202.359375 80.144531 202.261719 80.152344 C 202.199219 80.160156 202.136719 80.160156 202.074219 80.152344 C 198.933594 79.5625 193.082031 78.015625 191.171875 75.617188 Z M 191.558594 72.957031 C 192.054688 73.769531 192.710938 74.691406 192.769531 74.757812 C 192.867188 74.871094 192.972656 74.980469 193.085938 75.082031 C 194.785156 76.628906 198.207031 77.882812 200.46875 78.601562 C 197.894531 75.726562 195.863281 72.957031 191.550781 72.957031 Z M 190.902344 73.0625 Z M 190.902344 73.0625 " fill-opacity="1" fill-rule="evenodd"/><path fill="#000000" d="M 4.78125 93.679688 C 4.394531 93.242188 4.519531 92.90625 4.722656 92.488281 C 5.355469 91.3125 6.175781 90.289062 7.191406 89.429688 C 9.226562 87.679688 11.335938 87.179688 12.957031 86.691406 C 14.582031 86.207031 14.496094 86.101562 14.675781 86.085938 L 14.777344 85.964844 L 15.160156 85.894531 L 15.492188 86.117188 L 15.570312 86.507812 C 15.402344 87.339844 15.113281 88.132812 14.707031 88.878906 C 13.457031 91.113281 12.179688 91.972656 9.929688 92.789062 C 8.726562 93.253906 7.488281 93.597656 6.21875 93.828125 C 5.636719 94.015625 5.238281 94.066406 4.78125 93.679688 Z M 10.808594 90.722656 C 11.933594 90.1875 12.828125 89.390625 13.496094 88.332031 C 13.640625 88.121094 13.878906 87.707031 13.953125 87.558594 C 12.296875 88.257812 10.796875 88.527344 8.886719 90.078125 C 8.261719 90.597656 7.710938 91.1875 7.230469 91.84375 C 8.445312 91.546875 9.636719 91.171875 10.808594 90.722656 Z M 6.363281 93.339844 Z M 6.332031 93.808594 Z M 6.332031 93.808594 " fill-opacity="1" fill-rule="evenodd"/><g clip-path="url(#a060128aa6)"><path fill="#000000" d="M 12.949219 83.101562 C 9.207031 83.101562 6.382812 80.867188 3.96875 79.96875 C 3.746094 79.964844 3.542969 79.890625 3.367188 79.746094 C 3.191406 79.601562 3.078125 79.421875 3.027344 79.195312 C 2.992188 79 3.023438 78.8125 3.117188 78.636719 C 3.210938 78.457031 3.347656 78.328125 3.53125 78.246094 C 3.683594 78.179688 3.835938 78.128906 4 78.097656 C 5.09375 77.851562 7.304688 77.273438 8.800781 77.226562 C 10.761719 77.171875 12.585938 78 14.152344 79.117188 C 15.109375 79.863281 16.03125 80.652344 16.910156 81.492188 L 17.078125 81.855469 C 17 82.023438 16.945312 82.199219 16.917969 82.390625 C 16.535156 82.640625 16.648438 82.597656 16.277344 82.679688 C 15.183594 82.945312 14.074219 83.085938 12.949219 83.101562 Z M 4.324219 78.050781 Z M 15.515625 81.753906 C 14.0625 80.59375 12.535156 79.433594 10.707031 78.976562 C 9.171875 78.589844 8.160156 78.871094 6.558594 79.246094 C 9.898438 81.082031 11.609375 82.183594 15.515625 81.753906 Z M 4.367188 79.820312 Z M 4.367188 79.820312 Z M 4.011719 79.988281 Z M 4.011719 79.988281 " fill-opacity="1" fill-rule="evenodd"/></g><path fill="#000000" d="M 29.101562 75.308594 C 28.105469 75.308594 27.117188 75.21875 26.136719 75.042969 C 24.660156 74.765625 23.226562 74.347656 21.835938 73.78125 C 21.203125 73.582031 20.601562 73.324219 20.023438 73.003906 C 19.742188 72.871094 19.542969 72.652344 19.441406 72.355469 C 19.320312 71.847656 19.589844 71.355469 20.328125 71.214844 C 22.089844 70.789062 22.65625 70.109375 25.785156 70.035156 C 26.671875 70.003906 27.535156 70.113281 28.382812 70.359375 C 30.59375 71.085938 31.691406 72.582031 34.011719 73.144531 L 34.367188 73.363281 C 34.445312 73.683594 34.414062 73.621094 34.492188 73.691406 C 34.503906 73.816406 34.503906 73.945312 34.492188 74.078125 L 34.199219 74.355469 C 33.007812 74.863281 31.773438 75.160156 30.484375 75.253906 C 29.886719 75.304688 29.261719 75.3125 29.101562 75.308594 Z M 20.472656 71.199219 Z M 20.472656 71.199219 Z M 31.570312 73.890625 C 31.730469 73.890625 32.441406 73.78125 32.371094 73.78125 C 30.960938 73.222656 30.34375 72.738281 29.015625 72.105469 C 27.964844 71.644531 27.386719 71.480469 25.816406 71.566406 C 24.734375 71.609375 23.691406 71.832031 22.683594 72.230469 C 22.753906 72.261719 22.925781 72.320312 23.066406 72.378906 C 23.820312 72.703125 24.585938 72.976562 25.371094 73.210938 C 26.09375 73.421875 26.820312 73.597656 27.5625 73.730469 C 28.886719 73.96875 30.214844 74.027344 31.554688 73.894531 Z M 20.683594 72.914062 Z M 20.683594 72.914062 " fill-opacity="1" fill-rule="evenodd"/><path fill="#000000" d="M 146.703125 86.046875 C 146.445312 85.996094 146.191406 85.996094 145.933594 86.046875 C 144.910156 86.128906 144.355469 85.132812 145.113281 84.390625 C 145.757812 83.769531 147.984375 82.667969 148.855469 82.238281 C 154.582031 79.417969 159.648438 78.441406 164.769531 78.546875 C 164.898438 78.550781 165.019531 78.589844 165.125 78.664062 C 165.1875 78.710938 165.234375 78.769531 165.269531 78.839844 C 165.304688 78.90625 165.320312 78.980469 165.320312 79.054688 C 165.320312 79.128906 165.304688 79.203125 165.269531 79.269531 C 165.234375 79.339844 165.1875 79.394531 165.125 79.441406 C 162.597656 81.5625 158.710938 84.136719 155.402344 85.394531 C 151.453125 86.910156 150.042969 86.222656 146.703125 86.046875 Z M 152.59375 84.535156 C 156.070312 83.925781 160.148438 81.558594 163.015625 79.671875 C 157.539062 80.058594 152.984375 81.867188 148.328125 84.433594 C 150.152344 84.640625 150.992188 84.8125 152.59375 84.535156 Z M 146.496094 85.558594 Z M 146.496094 85.558594 Z M 146.242188 86 Z M 146.242188 86 " fill-opacity="1" fill-rule="evenodd"/><path fill="#000000" d="M 166.820312 96.929688 C 166.074219 96.929688 165.621094 96.394531 165.734375 95.769531 C 165.835938 95.441406 165.964844 95.132812 166.136719 94.839844 C 167.246094 92.992188 168.667969 91.429688 170.402344 90.164062 C 175.355469 86.425781 183.65625 84.28125 190.164062 84.007812 C 190.714844 83.984375 190.910156 83.941406 191.148438 84.226562 C 191.21875 84.328125 191.246094 84.433594 191.234375 84.558594 C 190.796875 84.515625 190.242188 84.460938 191.234375 84.558594 C 190.8125 89.078125 185.644531 92.875 181.132812 94.820312 C 177.359375 96.425781 174.597656 96.65625 170.039062 96.753906 C 167.230469 96.816406 168.164062 96.714844 167.308594 96.871094 C 167.148438 96.90625 166.988281 96.925781 166.820312 96.929688 Z M 174.992188 94.773438 C 180.5 94.203125 186.1875 90.972656 188.683594 87.6875 C 189.308594 86.902344 189.753906 86.027344 190.023438 85.058594 C 187.789062 85.257812 185.578125 85.625 183.394531 86.152344 C 177.550781 87.574219 171.15625 90.296875 168.117188 95.046875 C 170.441406 95.039062 172.691406 95.007812 174.992188 94.773438 Z M 167.824219 96.773438 Z M 167.824219 96.773438 " fill-opacity="1" fill-rule="evenodd"/><path fill="#000000" d="M 191.703125 97.714844 C 190.859375 97.546875 190.597656 96.695312 190.679688 95.914062 C 190.789062 94.992188 191.332031 94.113281 191.78125 93.304688 C 192.28125 92.347656 192.929688 91.507812 193.730469 90.785156 C 195.914062 88.796875 198.8125 87.914062 201.539062 86.445312 C 202.128906 86.125 202.101562 86.097656 202.375 86.105469 C 202.503906 86.109375 202.621094 86.160156 202.71875 86.253906 C 202.871094 86.390625 202.914062 86.550781 202.855469 86.746094 C 202.628906 87.535156 202.363281 88.308594 202.050781 89.070312 C 201.070312 91.496094 199.570312 94.066406 197.332031 95.613281 C 196.746094 96.015625 196.113281 96.332031 195.441406 96.570312 C 194.703125 96.847656 192.5 97.597656 191.980469 97.730469 C 191.886719 97.734375 191.792969 97.730469 191.703125 97.714844 Z M 195.863281 94.519531 C 198.28125 93.214844 200.09375 90.265625 201.191406 87.90625 C 198.757812 89.296875 196.15625 90.328125 194.4375 92.351562 C 194.003906 92.875 193.644531 93.445312 193.363281 94.0625 C 193.0625 94.582031 192.816406 95.128906 192.617188 95.695312 C 193.726562 95.375 194.8125 94.980469 195.875 94.519531 Z M 192.558594 96.324219 Z M 192.558594 96.324219 Z M 192.558594 96.324219 Z M 192.558594 96.324219 Z M 192.558594 96.324219 Z M 192.558594 96.324219 " fill-opacity="1" fill-rule="evenodd"/><g clip-path="url(#264b07867a)"><path fill="#000000" d="M 222.058594 87.210938 C 221.804688 89.664062 220.820312 92.792969 219.15625 94.886719 C 218.449219 95.785156 217.585938 96.503906 216.574219 97.027344 C 215.46875 97.640625 213.96875 98.417969 212.824219 98.996094 C 211.117188 99.867188 211.070312 99.90625 210.625 99.867188 C 210.390625 99.824219 210.199219 99.714844 210.042969 99.527344 C 209.878906 99.316406 209.785156 99.082031 209.761719 98.8125 C 209.605469 97.398438 211.007812 93.605469 211.683594 92.425781 C 212.167969 91.683594 212.753906 91.039062 213.449219 90.496094 C 215.554688 88.769531 218.648438 87.503906 221.332031 86.660156 C 221.457031 86.621094 221.585938 86.621094 221.714844 86.660156 C 221.835938 86.699219 221.9375 86.773438 222.011719 86.875 C 222.078125 86.980469 222.105469 87.089844 222.085938 87.210938 C 221.632812 87.160156 221.085938 87.101562 222.058594 87.210938 Z M 216.296875 95.28125 C 217.167969 94.738281 217.894531 94.039062 218.472656 93.1875 C 219.542969 91.59375 220.308594 89.863281 220.757812 87.992188 C 218.671875 88.835938 216.417969 89.929688 214.722656 91.347656 C 214.109375 91.847656 213.585938 92.4375 213.160156 93.117188 C 212.535156 94.554688 212.0625 96.042969 211.734375 97.578125 C 212.421875 97.246094 215.835938 95.558594 216.296875 95.28125 Z M 216.296875 95.28125 " fill-opacity="1" fill-rule="evenodd"/></g><path fill="#000000" d="M 6.792969 87.0625 L 6.535156 86.753906 C 6.535156 86.710938 6.535156 86.890625 6.585938 86.371094 L 6.929688 86.128906 C 7.109375 86.105469 8.847656 85.632812 9.234375 85.519531 C 24.175781 81.339844 39.515625 72.601562 52.996094 69.089844 C 66.761719 65.445312 83.167969 65.265625 97.429688 65.945312 C 105.429688 66.292969 121.386719 67.449219 123.015625 67.644531 C 129.792969 68.359375 137.316406 70.351562 143.957031 71.980469 C 151.164062 73.679688 167.25 76.945312 174.765625 78.398438 C 194.207031 82.117188 212.632812 84.613281 232.203125 83.644531 C 244.839844 83.003906 253.082031 81.324219 264.4375 78.839844 C 270.664062 77.472656 277.199219 75.84375 282.886719 73.125 C 284.601562 72.316406 286.230469 71.359375 287.777344 70.265625 C 287.871094 70.195312 288.164062 69.984375 288.421875 69.777344 L 288.804688 69.660156 L 289.191406 69.832031 L 289.316406 70.199219 L 289.128906 70.539062 C 289.042969 70.601562 288.820312 70.777344 288.457031 71.046875 C 283.550781 74.722656 276.25 77.125 270.132812 78.722656 C 265.953125 79.808594 257.289062 81.691406 254.875 82.179688 C 230.757812 87.050781 208.402344 85.84375 183.96875 81.773438 C 171.917969 79.753906 150.070312 75.222656 143.253906 73.566406 C 125.15625 69.09375 126.3125 69.441406 109.277344 68.21875 C 100.195312 67.585938 95.238281 67.375 90.101562 67.21875 C 64.226562 66.601562 52.949219 69.675781 38.988281 75.34375 C 29.039062 79.273438 19.503906 84.007812 7.230469 87.101562 Z M 6.792969 87.0625 " fill-opacity="1" fill-rule="evenodd"/><path fill="#000000" d="M 42.832031 86.5 C 42.535156 86.460938 42.304688 86.316406 42.136719 86.070312 C 42.046875 85.929688 42 85.78125 41.984375 85.621094 C 41.917969 84.800781 42.894531 82.175781 43.136719 81.65625 C 45.246094 77.03125 48.296875 75.949219 50.910156 73.53125 C 51.804688 72.757812 51.398438 72.980469 51.988281 72.730469 L 52.140625 72.78125 L 52.277344 72.707031 L 52.660156 72.800781 L 52.890625 73.125 L 52.890625 73.21875 C 53.660156 77.195312 51.789062 81.433594 48.316406 83.875 C 46.835938 84.949219 45.171875 85.542969 44.21875 86 C 43.226562 86.515625 43.183594 86.511719 42.832031 86.5 Z M 47.90625 82.078125 C 48.949219 81.265625 49.816406 80.289062 50.503906 79.152344 C 51.453125 77.625 51.914062 75.957031 51.882812 74.152344 C 51.070312 75.027344 49.304688 76.441406 48.519531 77.125 C 46.355469 79.003906 45.097656 80.730469 44.152344 84.117188 C 45.777344 83.429688 46.625 83.054688 47.90625 82.078125 Z M 43.851562 85.460938 Z M 43.851562 85.460938 Z M 43.851562 85.460938 " fill-opacity="1" fill-rule="evenodd"/><path fill="#000000" d="M 33.273438 86.554688 C 33.027344 86.570312 32.808594 86.5 32.621094 86.339844 C 32.429688 86.175781 32.324219 85.976562 32.300781 85.726562 C 32.226562 84.390625 32.539062 83.15625 33.242188 82.027344 C 34.234375 80.445312 36.75 78.390625 38.269531 77.222656 C 39.359375 76.398438 39.421875 76.367188 39.605469 76.324219 C 39.738281 76.300781 39.867188 76.320312 39.988281 76.386719 C 40.101562 76.441406 40.183594 76.535156 40.226562 76.65625 C 40.253906 76.710938 40.265625 76.769531 40.261719 76.832031 C 40.328125 77.972656 40.246094 79.105469 40.019531 80.230469 C 39.71875 81.90625 38.980469 83.355469 37.789062 84.566406 C 37.15625 85.1875 36.429688 85.65625 35.609375 85.976562 C 34.863281 86.304688 34.082031 86.5 33.273438 86.554688 Z M 38.777344 79.292969 C 38.804688 79.164062 39.007812 78.261719 39.007812 78.136719 C 37.894531 79.109375 36.847656 80.152344 35.867188 81.269531 C 34.824219 82.53125 34.378906 83.109375 34.1875 84.625 C 36.851562 83.859375 38.113281 81.863281 38.777344 79.292969 Z M 34.164062 85.53125 Z M 34.164062 85.53125 " fill-opacity="1" fill-rule="evenodd"/><path fill="#000000" d="M 58.09375 82.398438 C 57.464844 81.921875 57.378906 81.1875 57.410156 80.460938 C 57.46875 79.703125 57.585938 78.953125 57.757812 78.210938 C 58.03125 76.75 58.578125 75.394531 59.394531 74.15625 C 59.890625 73.390625 60.457031 72.691406 61.097656 72.042969 C 61.828125 71.304688 62.625 70.640625 63.480469 70.054688 L 63.894531 69.949219 C 64.28125 70.132812 64.171875 70.09375 64.347656 70.125 L 64.589844 70.433594 C 64.960938 71.667969 65.140625 72.925781 65.121094 74.21875 C 65.03125 76.449219 64.320312 78.292969 62.550781 80.171875 C 61.972656 80.761719 60.074219 82.414062 59.09375 82.609375 C 58.726562 82.6875 58.394531 82.617188 58.09375 82.398438 Z M 59.246094 80.589844 C 59.785156 80.226562 60.476562 79.664062 60.992188 79.238281 C 61.785156 78.519531 62.425781 77.683594 62.914062 76.726562 C 63.117188 76.328125 63.277344 75.910156 63.402344 75.480469 C 63.78125 74.109375 63.847656 72.71875 63.613281 71.3125 C 62.4375 72.316406 61.464844 73.484375 60.695312 74.820312 C 60.339844 75.457031 60.046875 76.117188 59.832031 76.8125 C 59.558594 77.726562 59.378906 78.65625 59.296875 79.609375 C 59.253906 79.9375 59.238281 80.261719 59.246094 80.589844 Z M 59.3125 81.117188 Z M 59.3125 81.117188 Z M 59.3125 81.117188 " fill-opacity="1" fill-rule="evenodd"/><path fill="#000000" d="M 42.164062 68.363281 C 41.214844 68.152344 40.289062 67.855469 39.398438 67.460938 C 37.832031 66.753906 37.15625 66.210938 35.707031 65.070312 C 35.457031 64.875 35.386719 64.871094 35.234375 64.609375 C 35.148438 64.390625 35.136719 64.167969 35.207031 63.941406 C 35.28125 63.714844 35.417969 63.542969 35.621094 63.417969 C 35.964844 63.1875 36.335938 63.019531 36.742188 62.914062 C 37.671875 62.65625 38.617188 62.464844 39.582031 62.347656 C 40.675781 62.246094 41.761719 62.296875 42.84375 62.5 C 46.496094 63.25 47.878906 65.628906 51.332031 66.597656 L 51.667969 66.84375 L 51.667969 66.9375 L 51.957031 66.988281 L 52.203125 67.292969 L 52.132812 67.679688 L 51.796875 67.917969 C 51.488281 67.910156 47.160156 69.453125 42.164062 68.363281 Z M 48.996094 67.289062 L 49.695312 67.214844 C 46.203125 65.96875 44.433594 63.347656 39.777344 63.96875 C 38.800781 64.125 37.835938 64.355469 37.75 64.398438 C 38.214844 64.773438 38.703125 65.117188 39.210938 65.433594 C 40.050781 65.917969 40.929688 66.3125 41.855469 66.601562 C 44.1875 67.332031 46.566406 67.566406 48.996094 67.289062 Z M 36.828125 64.730469 Z M 36.828125 64.730469 Z M 36.828125 64.730469 " fill-opacity="1" fill-rule="evenodd"/><path fill="#000000" d="M 107.726562 79.503906 C 107.367188 79.523438 107.089844 79.386719 106.898438 79.082031 C 106.703125 78.78125 106.6875 78.472656 106.859375 78.15625 C 107.082031 77.671875 107.378906 77.234375 107.75 76.851562 C 108.117188 76.441406 109.285156 75.300781 109.992188 74.714844 C 111.820312 73.199219 113.886719 72.175781 116.199219 71.65625 C 118.738281 71.0625 121.148438 70.929688 123.910156 70.664062 C 124.128906 70.664062 123.847656 70.601562 124.457031 70.753906 L 124.671875 71.089844 L 124.71875 71.15625 L 124.648438 71.542969 C 122.691406 74.445312 120.105469 76.796875 116.648438 78.066406 C 115.808594 78.378906 114.949219 78.625 114.070312 78.796875 C 112.214844 79.152344 110.347656 79.355469 108.460938 79.40625 C 108.128906 79.425781 108.066406 79.503906 107.726562 79.503906 Z M 113.703125 77.183594 C 114.496094 77.050781 115.277344 76.863281 116.042969 76.617188 C 116.351562 76.523438 116.664062 76.40625 116.816406 76.351562 C 119.28125 75.382812 121.359375 73.875 123.050781 71.828125 C 120.882812 72.066406 118.742188 72.457031 116.625 72.988281 C 114.59375 73.523438 112.785156 74.492188 111.207031 75.886719 C 110.804688 76.253906 109.804688 77.238281 109.449219 77.617188 C 110.875 77.5625 112.285156 77.417969 113.6875 77.1875 Z M 108.320312 79.40625 Z M 108.320312 79.40625 Z M 108.320312 79.40625 " fill-opacity="1" fill-rule="evenodd"/><path fill="#000000" d="M 143.109375 69.851562 C 139.019531 68.519531 133.078125 66.105469 130.46875 62.949219 C 130.144531 62.5625 129.867188 62.144531 129.628906 61.699219 L 129.59375 61.632812 C 129.496094 61.46875 128.4375 59.90625 128.175781 59.378906 C 127.917969 58.925781 127.6875 58.417969 127.839844 57.96875 C 127.886719 57.8125 127.96875 57.683594 128.085938 57.578125 C 128.550781 57.222656 128.855469 57.3125 129.621094 57.476562 C 131.585938 57.921875 133.488281 58.558594 135.328125 59.378906 C 139.769531 61.574219 140.835938 65.117188 143.277344 68.421875 C 143.859375 69.195312 143.898438 69.125 143.917969 69.410156 C 143.914062 69.535156 143.867188 69.644531 143.777344 69.738281 C 143.710938 69.808594 143.628906 69.851562 143.539062 69.882812 C 143.414062 69.921875 143.285156 69.921875 143.15625 69.882812 Z M 134.535156 60.800781 C 133.171875 60.242188 131.773438 59.789062 130.34375 59.4375 C 130.421875 59.558594 131.113281 60.601562 131.222656 60.820312 C 131.523438 61.4375 131.90625 61.992188 132.375 62.488281 C 134.582031 64.8125 138.605469 66.871094 141.632812 68.15625 C 139.609375 65.488281 138.28125 62.460938 134.535156 60.800781 Z M 134.535156 60.800781 " fill-opacity="1" fill-rule="evenodd"/><path fill="#000000" d="M 94.089844 76.464844 C 93.46875 76.730469 92.835938 76.953125 92.1875 77.144531 C 91.230469 77.390625 89.984375 77.804688 88.679688 78.023438 C 88.289062 78.113281 87.921875 78.046875 87.582031 77.828125 C 87.425781 77.710938 87.320312 77.554688 87.257812 77.367188 C 87.195312 77.183594 87.191406 76.996094 87.242188 76.808594 C 87.359375 76.125 88.707031 74.207031 89.097656 73.695312 C 90.082031 72.410156 91.972656 71.46875 93.558594 70.9375 C 95.828125 70.210938 98.148438 69.746094 100.519531 69.546875 C 100.882812 69.519531 100.847656 69.515625 101.023438 69.546875 C 101.136719 69.589844 101.226562 69.664062 101.292969 69.769531 C 101.414062 69.960938 101.402344 70.152344 101.253906 70.328125 C 99.320312 72.957031 97.160156 75.113281 94.089844 76.464844 Z M 89.699219 76.03125 C 92.523438 75.359375 94.148438 74.949219 96.453125 73.363281 C 97.207031 72.832031 97.917969 72.238281 98.582031 71.597656 C 98.808594 71.390625 99.175781 71.015625 99.390625 70.796875 C 97.730469 71.09375 96.113281 71.53125 94.53125 72.109375 C 93.160156 72.640625 91.992188 73.191406 90.964844 74.160156 C 90.722656 74.398438 90.511719 74.667969 90.332031 74.960938 C 89.566406 76.175781 89.632812 76.050781 89.707031 76.03125 Z M 89.085938 77.140625 Z M 89.085938 77.140625 " fill-opacity="1" fill-rule="evenodd"/><path fill="#000000" d="M 114.816406 65.394531 C 111.78125 64.886719 108.179688 64.027344 105.800781 62.25 C 104.632812 61.277344 103.53125 60.230469 102.496094 59.117188 C 102.277344 58.917969 102.125 58.679688 102.035156 58.398438 C 101.980469 58.140625 102.035156 57.910156 102.203125 57.707031 C 102.683594 57.171875 103.414062 57.171875 104.1875 57.171875 C 105.414062 57.210938 106.417969 57.371094 107.113281 57.453125 C 109.738281 57.753906 112.042969 58.78125 114.03125 60.523438 C 115.441406 61.714844 118.257812 64.636719 118.574219 64.8125 C 118.738281 64.964844 118.8125 65.011719 118.839844 65.261719 C 118.839844 65.382812 118.796875 65.484375 118.722656 65.578125 C 118.589844 65.726562 118.425781 65.792969 118.226562 65.777344 C 117.476562 65.726562 116.089844 65.589844 114.816406 65.394531 Z M 116.488281 64.464844 C 112.117188 60.617188 110.828125 59.1875 104.789062 58.890625 C 105.050781 59.164062 106.207031 60.316406 106.609375 60.683594 C 107.703125 61.574219 108.910156 62.265625 110.230469 62.757812 C 112.261719 63.523438 114.34375 64.097656 116.484375 64.476562 Z M 103.464844 58.921875 Z M 103.464844 58.921875 Z M 103.464844 58.921875 Z M 103.464844 58.921875 " fill-opacity="1" fill-rule="evenodd"/><path fill="#000000" d="M 274.476562 88.527344 C 273.707031 88.484375 273.394531 87.835938 273.410156 87.132812 C 273.445312 85.976562 274.265625 84.851562 274.859375 83.527344 C 276.484375 79.960938 278.867188 77.386719 282.933594 75.324219 C 283.265625 75.148438 283.339844 75.101562 283.589844 75.117188 C 283.71875 75.128906 283.824219 75.183594 283.914062 75.273438 C 283.980469 75.339844 284.023438 75.417969 284.050781 75.503906 C 284.058594 75.558594 284.058594 75.617188 284.050781 75.671875 C 283.609375 75.628906 283.054688 75.574219 284.050781 75.671875 C 283.816406 78.601562 282.867188 82.632812 280.925781 85.015625 C 279.441406 86.792969 277.585938 87.335938 275.492188 88.109375 C 275.207031 88.371094 274.863281 88.511719 274.476562 88.527344 Z M 278.601562 84.863281 C 280.910156 83.253906 282.171875 79.296875 282.738281 76.699219 C 280.535156 78.019531 278.785156 79.792969 277.492188 82.023438 C 277.042969 82.824219 276.660156 83.65625 276.339844 84.519531 C 276.136719 84.996094 275.738281 85.714844 275.523438 86.257812 C 276.609375 85.925781 277.632812 85.464844 278.601562 84.863281 Z M 275.285156 87.253906 Z M 275.515625 88.109375 Z M 275.515625 88.109375 " fill-opacity="1" fill-rule="evenodd"/><path fill="#000000" d="M 85.773438 63.746094 C 85.757812 63.875 85.699219 63.980469 85.605469 64.0625 C 85.21875 64.335938 85.285156 64.195312 82.578125 63.675781 C 79.371094 62.980469 77.984375 62.417969 75.441406 60.582031 C 74.171875 59.605469 73.210938 58.390625 72.546875 56.929688 C 72.484375 56.78125 72.453125 56.628906 72.457031 56.46875 C 72.46875 56.203125 72.582031 55.984375 72.789062 55.820312 C 72.976562 55.6875 73.1875 55.613281 73.417969 55.609375 C 74.605469 55.484375 75.832031 55.75 77.074219 56.023438 C 78.8125 56.34375 80.574219 57.636719 81.785156 58.8125 C 83.234375 60.214844 84.53125 61.75 85.671875 63.410156 C 85.746094 63.511719 85.78125 63.625 85.773438 63.746094 Z M 74.320312 56.347656 Z M 81.660156 60.691406 C 80.640625 59.746094 78.851562 58.304688 77.484375 57.863281 C 77.34375 57.8125 77.207031 57.769531 77.0625 57.734375 C 76.988281 57.710938 75.351562 57.40625 74.828125 57.347656 C 75.136719 57.835938 75.484375 58.292969 75.871094 58.722656 C 76.355469 59.304688 77.792969 60.382812 78.914062 61.046875 C 80.359375 61.886719 82.0625 62.320312 83.667969 62.746094 C 83.460938 62.429688 82.136719 61.136719 81.660156 60.691406 Z M 81.660156 60.691406 " fill-opacity="1" fill-rule="evenodd"/><path fill="#556b2f" d="M 384.675781 53.722656 C 387.488281 55.046875 389.015625 56.84375 390.433594 59.019531 C 391.351562 60.402344 390.992188 59.890625 391.316406 60.230469 C 391.425781 60.332031 391.496094 60.453125 391.542969 60.59375 C 391.589844 60.730469 391.601562 60.875 391.574219 61.019531 C 391.546875 61.160156 391.488281 61.292969 391.402344 61.410156 C 391.308594 61.523438 391.195312 61.609375 391.058594 61.667969 C 390.445312 61.976562 389.625 61.933594 388.929688 61.84375 C 386.59375 61.527344 384.503906 60.632812 382.664062 59.160156 C 380.636719 57.53125 378.964844 55.59375 377.648438 53.347656 C 377.425781 52.964844 377.316406 52.828125 377.457031 52.53125 C 377.578125 52.335938 377.753906 52.25 377.980469 52.265625 C 377.980469 52.328125 377.953125 52.761719 377.980469 52.265625 C 380.316406 52.257812 382.546875 52.742188 384.675781 53.722656 Z M 390.152344 60.179688 Z M 390.152344 60.179688 Z M 385.191406 58.980469 C 385.695312 59.246094 386.214844 59.46875 386.75 59.652344 C 387.484375 59.894531 388.234375 60.066406 389 60.171875 C 388.375 59.125 387.65625 58.144531 386.851562 57.230469 C 385.339844 55.574219 382.835938 54.074219 379.605469 53.484375 C 379.191406 53.410156 379.109375 53.40625 379.039062 53.390625 C 380.570312 55.476562 382.832031 57.777344 385.199219 58.976562 Z M 391.101562 60.035156 Z M 391.101562 60.035156 " fill-opacity="1" fill-rule="evenodd"/><path fill="#556b2f" d="M 355.648438 37.796875 C 355.851562 37.800781 356.039062 37.859375 356.203125 37.980469 C 356.367188 38.09375 356.476562 38.238281 356.53125 38.429688 C 356.914062 39.75 355.378906 41.246094 354.574219 42.386719 C 353.832031 43.578125 353.003906 44.71875 352.109375 45.796875 C 350.640625 47.445312 349.179688 48.367188 347.019531 49.246094 C 345.816406 49.742188 344.746094 50.089844 344.628906 50.132812 L 344.484375 50.132812 L 344.265625 50.265625 L 343.882812 50.175781 L 343.652344 49.859375 C 343.539062 49.371094 343.480469 48.875 343.476562 48.375 C 343.476562 46.460938 344.28125 44.753906 345.601562 43.292969 C 348.238281 40.382812 352.175781 39.140625 354.164062 38.308594 C 355.242188 37.878906 355.320312 37.796875 355.648438 37.796875 Z M 349.867188 42.011719 C 346.890625 43.621094 344.550781 45.898438 344.652344 49.019531 C 349.230469 47.160156 350.476562 45.9375 352.828125 41.96875 C 353.191406 41.367188 353.589844 40.796875 354.019531 40.246094 C 352.59375 40.738281 351.207031 41.328125 349.867188 42.023438 Z M 354.726562 38.855469 Z M 354.726562 38.855469 Z M 354.726562 38.855469 Z M 354.726562 38.855469 Z M 354.726562 38.855469 " fill-opacity="1" fill-rule="evenodd"/><path fill="#556b2f" d="M 338.777344 56.476562 C 339.300781 56.394531 341.265625 56.253906 342.109375 56.222656 C 344.625 56.132812 347.972656 56.222656 350.257812 57.148438 C 351.449219 57.730469 352.570312 58.425781 353.617188 59.238281 C 354.8125 60.167969 354.261719 59.746094 354.894531 60.257812 C 355.78125 60.976562 355.527344 60.726562 355.902344 60.941406 C 356.027344 60.992188 356.128906 61.0625 356.21875 61.160156 C 356.304688 61.257812 356.371094 61.375 356.40625 61.496094 C 356.445312 61.625 356.453125 61.753906 356.433594 61.886719 C 356.410156 62.015625 356.363281 62.132812 356.285156 62.242188 C 355.789062 62.871094 354.316406 62.882812 353.464844 62.855469 C 351.855469 62.753906 349.492188 62.472656 348.910156 62.367188 C 344.375 61.648438 342 59.683594 338.785156 57.582031 C 338.449219 57.355469 338.371094 57.332031 338.28125 57.109375 C 338.246094 56.992188 338.253906 56.875 338.3125 56.765625 C 338.410156 56.582031 338.5625 56.484375 338.765625 56.46875 C 338.785156 56.554688 338.796875 56.648438 338.777344 56.476562 Z M 340.589844 57.421875 C 343.695312 59.316406 345.992188 60.570312 349.714844 60.917969 C 350.066406 60.960938 352.945312 61.179688 353.222656 61.179688 C 352.324219 60.441406 350.425781 59 349.558594 58.609375 C 347.105469 57.527344 343.300781 57.421875 340.589844 57.421875 Z M 355.082031 61.027344 Z M 355.558594 60.769531 Z M 355.558594 60.769531 Z M 355.558594 60.769531 " fill-opacity="1" fill-rule="evenodd"/><path fill="#556b2f" d="M 407.453125 57.949219 C 407.917969 58.539062 408.96875 59.992188 409.210938 60.691406 C 409.296875 60.894531 409.3125 61.097656 409.253906 61.308594 C 409.199219 61.511719 409.082031 61.683594 408.90625 61.8125 C 408.652344 61.988281 408.375 62.109375 408.070312 62.175781 C 407.035156 62.324219 406.015625 62.269531 404.996094 62.007812 C 400.441406 60.953125 398.683594 57.246094 396.167969 54.464844 C 395.949219 54.21875 395.824219 54.132812 395.894531 53.816406 C 395.933594 53.699219 396.003906 53.609375 396.109375 53.542969 C 396.191406 53.492188 396.277344 53.464844 396.375 53.453125 C 396.4375 53.445312 396.5 53.445312 396.558594 53.453125 C 399.699219 54.035156 405.546875 55.574219 407.453125 57.949219 Z M 407.070312 60.585938 C 406.574219 59.78125 405.917969 58.859375 405.859375 58.796875 C 405.757812 58.6875 405.652344 58.578125 405.542969 58.476562 C 403.839844 56.945312 400.425781 55.703125 398.167969 54.988281 C 400.738281 57.839844 402.765625 60.585938 407.078125 60.585938 Z M 407.726562 60.480469 Z M 407.726562 60.480469 " fill-opacity="1" fill-rule="evenodd"/><path fill="#556b2f" d="M 593.707031 40.050781 C 594.089844 40.480469 593.96875 40.820312 593.765625 41.230469 C 593.136719 42.398438 592.3125 43.410156 591.292969 44.265625 C 589.269531 45.996094 587.15625 46.492188 585.535156 46.972656 C 583.917969 47.453125 583.996094 47.5625 583.820312 47.578125 L 583.71875 47.699219 L 583.335938 47.765625 L 583.003906 47.542969 L 582.921875 47.160156 C 583.09375 46.332031 583.378906 45.550781 583.789062 44.804688 C 585.039062 42.59375 586.308594 41.738281 588.558594 40.929688 C 589.765625 40.46875 591.003906 40.128906 592.273438 39.90625 C 592.851562 39.714844 593.25 39.667969 593.707031 40.050781 Z M 587.6875 42.980469 C 586.5625 43.507812 585.664062 44.300781 585 45.347656 C 584.855469 45.558594 584.613281 45.96875 584.539062 46.113281 C 586.195312 45.421875 587.699219 45.15625 589.601562 43.617188 C 590.226562 43.101562 590.777344 42.519531 591.253906 41.867188 C 590.046875 42.164062 588.855469 42.535156 587.6875 42.980469 Z M 592.125 40.390625 Z M 592.160156 39.925781 Z M 592.160156 39.925781 " fill-opacity="1" fill-rule="evenodd"/><g clip-path="url(#d5a20c34fe)"><path fill="#556b2f" d="M 585.542969 50.527344 C 589.289062 50.527344 592.105469 52.742188 594.519531 53.632812 C 594.742188 53.636719 594.945312 53.710938 595.121094 53.855469 C 595.296875 54 595.410156 54.179688 595.460938 54.402344 C 595.496094 54.597656 595.464844 54.785156 595.367188 54.957031 C 595.273438 55.132812 595.140625 55.261719 594.957031 55.34375 C 594.804688 55.410156 594.648438 55.460938 594.488281 55.492188 C 593.398438 55.734375 591.1875 56.308594 589.691406 56.355469 C 587.734375 56.410156 585.90625 55.589844 584.34375 54.476562 C 583.382812 53.742188 582.464844 52.960938 581.589844 52.128906 L 581.417969 51.769531 C 581.5 51.597656 581.554688 51.421875 581.582031 51.238281 C 581.964844 50.984375 581.847656 51.027344 582.21875 50.945312 C 583.3125 50.6875 584.421875 50.546875 585.542969 50.527344 Z M 594.160156 55.539062 Z M 582.980469 51.867188 C 584.433594 53.019531 585.957031 54.167969 587.785156 54.617188 C 589.320312 55 590.332031 54.722656 591.933594 54.351562 C 588.59375 52.535156 586.886719 51.441406 582.980469 51.867188 Z M 594.117188 53.785156 Z M 594.117188 53.785156 Z M 594.476562 53.613281 Z M 594.476562 53.613281 " fill-opacity="1" fill-rule="evenodd"/></g><path fill="#556b2f" d="M 569.402344 58.253906 C 570.398438 58.253906 571.386719 58.339844 572.367188 58.515625 C 573.839844 58.789062 575.273438 59.207031 576.664062 59.769531 C 577.292969 59.964844 577.898438 60.21875 578.476562 60.539062 C 578.761719 60.671875 578.953125 60.886719 579.058594 61.179688 C 579.179688 61.683594 578.90625 62.171875 578.175781 62.308594 C 576.410156 62.730469 575.847656 63.40625 572.714844 63.480469 C 571.835938 63.507812 570.972656 63.402344 570.125 63.160156 C 567.917969 62.4375 566.816406 60.957031 564.496094 60.398438 L 564.144531 60.179688 C 564.066406 59.867188 564.097656 59.925781 564.019531 59.859375 C 564.007812 59.734375 564.007812 59.605469 564.019531 59.476562 L 564.308594 59.199219 C 565.496094 58.695312 566.734375 58.398438 568.023438 58.308594 C 568.621094 58.257812 569.246094 58.25 569.402344 58.253906 Z M 578.027344 62.324219 Z M 578.027344 62.324219 Z M 566.9375 59.660156 C 566.777344 59.660156 566.0625 59.769531 566.136719 59.769531 C 567.546875 60.320312 568.164062 60.800781 569.484375 61.425781 C 570.539062 61.882812 571.113281 62.046875 572.6875 61.960938 C 573.769531 61.921875 574.8125 61.699219 575.820312 61.304688 C 575.75 61.273438 575.570312 61.214844 575.4375 61.15625 C 574.683594 60.835938 573.914062 60.5625 573.132812 60.332031 C 572.410156 60.121094 571.679688 59.949219 570.945312 59.820312 C 569.621094 59.582031 568.289062 59.523438 566.953125 59.65625 Z M 577.816406 60.628906 Z M 577.816406 60.628906 " fill-opacity="1" fill-rule="evenodd"/><path fill="#556b2f" d="M 451.894531 47.617188 C 452.144531 47.664062 452.402344 47.664062 452.65625 47.617188 C 453.683594 47.53125 454.238281 48.519531 453.480469 49.25 C 452.832031 49.871094 450.609375 50.957031 449.742188 51.386719 C 444.019531 54.179688 438.957031 55.152344 433.839844 55.042969 C 433.707031 55.042969 433.585938 55.003906 433.484375 54.925781 C 433.421875 54.882812 433.375 54.824219 433.339844 54.757812 C 433.308594 54.6875 433.289062 54.617188 433.289062 54.542969 C 433.289062 54.464844 433.308594 54.398438 433.339844 54.328125 C 433.375 54.261719 433.421875 54.203125 433.484375 54.160156 C 436.007812 52.058594 439.890625 49.507812 443.195312 48.261719 C 447.144531 46.757812 448.554688 47.4375 451.894531 47.617188 Z M 446.003906 49.113281 C 442.527344 49.710938 438.457031 52.0625 435.589844 53.929688 C 441.0625 53.546875 445.617188 51.757812 450.269531 49.210938 C 448.449219 49.007812 447.605469 48.835938 446.003906 49.113281 Z M 452.097656 48.097656 Z M 452.097656 48.097656 Z M 452.351562 47.664062 Z M 452.351562 47.664062 " fill-opacity="1" fill-rule="evenodd"/><path fill="#556b2f" d="M 431.789062 36.832031 C 432.53125 36.832031 432.984375 37.359375 432.875 37.980469 C 432.777344 38.300781 432.640625 38.609375 432.46875 38.902344 C 431.363281 40.734375 429.945312 42.277344 428.210938 43.53125 C 423.265625 47.242188 414.964844 49.363281 408.460938 49.628906 C 407.910156 49.652344 407.71875 49.695312 407.480469 49.417969 C 407.40625 49.320312 407.378906 49.207031 407.390625 49.089844 C 407.828125 49.132812 408.382812 49.1875 407.390625 49.089844 C 407.8125 44.613281 412.976562 40.84375 417.488281 38.921875 C 421.257812 37.328125 424.015625 37.097656 428.570312 37.003906 C 431.375 36.941406 430.445312 37.039062 431.300781 36.886719 C 431.460938 36.855469 431.625 36.835938 431.789062 36.832031 Z M 423.621094 38.964844 C 418.117188 39.53125 412.433594 42.730469 409.941406 45.988281 C 409.320312 46.765625 408.871094 47.632812 408.605469 48.59375 C 410.839844 48.394531 413.046875 48.03125 415.226562 47.507812 C 421.066406 46.101562 427.457031 43.40625 430.496094 38.691406 C 428.167969 38.699219 425.921875 38.730469 423.621094 38.964844 Z M 430.785156 36.984375 Z M 430.785156 36.984375 " fill-opacity="1" fill-rule="evenodd"/><path fill="#556b2f" d="M 406.925781 36.050781 C 407.765625 36.21875 408.03125 37.058594 407.945312 37.832031 C 407.835938 38.746094 407.292969 39.621094 406.847656 40.421875 C 406.347656 41.371094 405.699219 42.199219 404.902344 42.917969 C 402.714844 44.886719 399.824219 45.761719 397.09375 47.222656 C 396.511719 47.535156 396.535156 47.566406 396.261719 47.558594 C 396.128906 47.546875 396.015625 47.496094 395.917969 47.410156 C 395.769531 47.273438 395.722656 47.109375 395.785156 46.921875 C 396.003906 46.136719 396.273438 45.371094 396.582031 44.621094 C 397.566406 42.210938 399.066406 39.667969 401.296875 38.136719 C 401.886719 37.738281 402.519531 37.421875 403.191406 37.1875 C 403.925781 36.910156 406.125 36.167969 406.644531 36.035156 C 406.738281 36.027344 406.832031 36.035156 406.925781 36.050781 Z M 402.765625 39.21875 C 400.355469 40.507812 398.542969 43.4375 397.445312 45.769531 C 399.878906 44.390625 402.476562 43.375 404.191406 41.363281 C 404.625 40.84375 404.980469 40.285156 405.269531 39.671875 C 405.566406 39.152344 405.816406 38.617188 406.015625 38.054688 C 404.902344 38.371094 403.8125 38.757812 402.753906 39.21875 Z M 406.070312 37.425781 Z M 406.070312 37.425781 Z M 406.070312 37.425781 Z M 406.070312 37.425781 Z M 406.070312 37.425781 Z M 406.070312 37.425781 " fill-opacity="1" fill-rule="evenodd"/><g clip-path="url(#84bc9f0c8e)"><path fill="#556b2f" d="M 376.589844 46.460938 C 376.847656 44.027344 377.832031 40.925781 379.492188 38.855469 C 380.199219 37.960938 381.058594 37.253906 382.070312 36.734375 C 383.175781 36.125 384.679688 35.355469 385.824219 34.777344 C 387.527344 33.917969 387.570312 33.878906 388.019531 33.917969 C 388.25 33.960938 388.445312 34.074219 388.597656 34.253906 C 388.761719 34.460938 388.855469 34.699219 388.878906 34.964844 C 389.035156 36.367188 387.632812 40.121094 386.960938 41.289062 C 386.476562 42.03125 385.886719 42.667969 385.195312 43.207031 C 383.089844 44.914062 380.003906 46.167969 377.320312 47 C 377.191406 47.042969 377.0625 47.042969 376.933594 47 C 376.816406 46.96875 376.714844 46.894531 376.640625 46.792969 C 376.570312 46.691406 376.542969 46.578125 376.5625 46.460938 C 377.015625 46.511719 377.5625 46.5625 376.589844 46.460938 Z M 382.351562 38.464844 C 381.476562 39.003906 380.757812 39.691406 380.175781 40.535156 C 379.105469 42.117188 378.34375 43.832031 377.890625 45.683594 C 379.976562 44.847656 382.226562 43.769531 383.921875 42.363281 C 384.539062 41.863281 385.058594 41.277344 385.484375 40.609375 C 386.105469 39.183594 386.582031 37.710938 386.910156 36.1875 C 386.226562 36.515625 382.8125 38.1875 382.351562 38.464844 Z M 382.351562 38.464844 " fill-opacity="1" fill-rule="evenodd"/></g><path fill="#556b2f" d="M 591.695312 46.601562 L 591.957031 46.914062 C 591.957031 46.953125 591.957031 46.777344 591.902344 47.296875 L 591.5625 47.53125 C 591.382812 47.558594 589.640625 48.027344 589.257812 48.136719 C 574.328125 52.273438 559 60.9375 545.527344 64.417969 C 531.769531 68.03125 515.378906 68.207031 501.128906 67.53125 C 493.128906 67.191406 477.1875 66.039062 475.5625 65.851562 C 468.789062 65.140625 461.269531 63.167969 454.636719 61.550781 C 447.433594 59.871094 431.355469 56.632812 423.851562 55.195312 C 404.421875 51.507812 386.007812 49.035156 366.453125 49.992188 C 353.828125 50.628906 345.589844 52.289062 334.242188 54.753906 C 328.023438 56.109375 321.492188 57.722656 315.808594 60.417969 C 314.097656 61.21875 312.46875 62.167969 310.921875 63.253906 C 310.828125 63.320312 310.539062 63.53125 310.277344 63.734375 L 309.894531 63.851562 L 309.511719 63.6875 L 309.386719 63.316406 L 309.570312 62.976562 C 309.65625 62.917969 309.878906 62.742188 310.242188 62.476562 C 315.148438 58.832031 322.445312 56.457031 328.558594 54.871094 C 332.730469 53.796875 341.390625 51.929688 343.800781 51.445312 C 367.902344 46.613281 390.238281 47.816406 414.652344 51.847656 C 426.699219 53.847656 448.527344 58.339844 455.335938 59.980469 C 473.417969 64.414062 472.265625 64.070312 489.289062 65.277344 C 498.367188 65.90625 503.316406 66.113281 508.449219 66.269531 C 534.308594 66.878906 545.574219 63.835938 559.523438 58.21875 C 569.460938 54.324219 578.992188 49.628906 591.253906 46.5625 Z M 591.695312 46.601562 " fill-opacity="1" fill-rule="evenodd"/><path fill="#556b2f" d="M 555.6875 47.167969 C 555.980469 47.203125 556.214844 47.347656 556.382812 47.59375 C 556.464844 47.730469 556.515625 47.875 556.527344 48.039062 C 556.59375 48.84375 555.625 51.449219 555.375 51.964844 C 553.273438 56.546875 550.226562 57.617188 547.609375 60.015625 C 546.71875 60.78125 547.125 60.5625 546.539062 60.808594 L 546.378906 60.757812 L 546.246094 60.832031 L 545.859375 60.738281 L 545.636719 60.417969 L 545.636719 60.324219 C 544.867188 56.386719 546.734375 52.1875 550.207031 49.765625 C 551.683594 48.703125 553.347656 48.113281 554.296875 47.664062 C 555.292969 47.152344 555.328125 47.15625 555.6875 47.167969 Z M 550.617188 51.546875 C 549.570312 52.351562 548.703125 53.316406 548.015625 54.445312 C 547.066406 55.960938 546.609375 57.613281 546.640625 59.402344 C 547.449219 58.53125 549.214844 57.128906 550 56.457031 C 552.164062 54.589844 553.421875 52.882812 554.367188 49.527344 C 552.742188 50.207031 551.894531 50.574219 550.617188 51.546875 Z M 554.667969 48.195312 Z M 554.667969 48.195312 Z M 554.667969 48.195312 " fill-opacity="1" fill-rule="evenodd"/><path fill="#556b2f" d="M 565.238281 47.109375 C 565.480469 47.09375 565.699219 47.164062 565.890625 47.324219 C 566.074219 47.480469 566.183594 47.6875 566.210938 47.929688 C 566.285156 49.25 565.96875 50.476562 565.265625 51.597656 C 564.277344 53.160156 561.765625 55.203125 560.246094 56.359375 C 559.152344 57.175781 559.09375 57.207031 558.910156 57.246094 C 558.773438 57.273438 558.648438 57.25 558.527344 57.1875 C 558.414062 57.125 558.332031 57.039062 558.285156 56.917969 C 558.257812 56.863281 558.246094 56.804688 558.25 56.746094 C 558.183594 55.613281 558.265625 54.488281 558.496094 53.378906 C 558.792969 51.714844 559.535156 50.28125 560.722656 49.082031 C 561.355469 48.464844 562.082031 48 562.90625 47.6875 C 563.648438 47.359375 564.425781 47.167969 565.238281 47.109375 Z M 559.738281 54.304688 C 559.710938 54.433594 559.507812 55.328125 559.507812 55.453125 C 560.617188 54.484375 561.664062 53.453125 562.640625 52.347656 C 563.6875 51.101562 564.128906 50.519531 564.320312 49.023438 C 561.664062 49.78125 560.394531 51.761719 559.738281 54.304688 Z M 564.34375 48.125 Z M 564.34375 48.125 " fill-opacity="1" fill-rule="evenodd"/><path fill="#556b2f" d="M 540.4375 51.230469 C 541.066406 51.703125 541.152344 52.429688 541.121094 53.144531 C 541.058594 53.902344 540.941406 54.644531 540.769531 55.375 C 540.496094 56.828125 539.949219 58.167969 539.132812 59.398438 C 538.636719 60.152344 538.070312 60.847656 537.429688 61.488281 C 536.703125 62.222656 535.910156 62.878906 535.054688 63.460938 L 534.636719 63.566406 C 534.253906 63.382812 534.359375 63.421875 534.1875 63.390625 L 533.945312 63.082031 C 533.570312 61.863281 533.394531 60.613281 533.414062 59.335938 C 533.5 57.121094 534.214844 55.300781 535.980469 53.433594 C 536.5625 52.851562 538.457031 51.214844 539.4375 51.015625 C 539.800781 50.941406 540.136719 51.011719 540.4375 51.230469 Z M 539.285156 53.023438 C 538.746094 53.382812 538.050781 53.9375 537.535156 54.359375 C 536.746094 55.074219 536.105469 55.902344 535.617188 56.847656 C 535.414062 57.246094 535.25 57.65625 535.125 58.082031 C 534.753906 59.445312 534.683594 60.820312 534.921875 62.210938 C 536.09375 61.21875 537.066406 60.0625 537.835938 58.738281 C 538.191406 58.109375 538.480469 57.453125 538.699219 56.765625 C 538.972656 55.855469 539.148438 54.933594 539.234375 53.992188 C 539.273438 53.667969 539.292969 53.34375 539.285156 53.023438 Z M 539.214844 52.5 Z M 539.214844 52.5 Z M 539.214844 52.5 " fill-opacity="1" fill-rule="evenodd"/><path fill="#556b2f" d="M 556.355469 65.136719 C 557.304688 65.34375 558.222656 65.640625 559.117188 66.027344 C 560.679688 66.734375 561.359375 67.269531 562.804688 68.398438 C 563.054688 68.59375 563.125 68.597656 563.273438 68.855469 C 563.363281 69.070312 563.375 69.292969 563.300781 69.515625 C 563.226562 69.742188 563.09375 69.910156 562.890625 70.035156 C 562.546875 70.265625 562.171875 70.429688 561.773438 70.535156 C 560.839844 70.789062 559.894531 70.980469 558.933594 71.097656 C 557.839844 71.195312 556.753906 71.148438 555.675781 70.941406 C 552.019531 70.203125 550.644531 67.847656 547.191406 66.882812 L 546.859375 66.640625 L 546.859375 66.546875 L 546.566406 66.496094 L 546.320312 66.195312 L 546.386719 65.8125 L 546.726562 65.578125 C 547.03125 65.585938 551.359375 64.058594 556.355469 65.136719 Z M 549.527344 66.199219 L 548.828125 66.273438 C 552.316406 67.511719 554.085938 70.105469 558.734375 69.488281 C 559.714844 69.339844 560.675781 69.105469 560.761719 69.0625 C 560.296875 68.695312 559.808594 68.355469 559.300781 68.042969 C 558.464844 67.558594 557.582031 67.171875 556.660156 66.878906 C 554.328125 66.15625 551.949219 65.925781 549.527344 66.199219 Z M 561.6875 68.734375 Z M 561.6875 68.734375 Z M 561.6875 68.734375 " fill-opacity="1" fill-rule="evenodd"/><path fill="#556b2f" d="M 490.835938 54.097656 C 491.199219 54.074219 491.472656 54.210938 491.667969 54.511719 C 491.863281 54.8125 491.875 55.121094 491.707031 55.433594 C 491.480469 55.914062 491.183594 56.34375 490.816406 56.726562 C 490.449219 57.128906 489.28125 58.261719 488.570312 58.839844 C 486.75 60.34375 484.679688 61.355469 482.371094 61.871094 C 479.835938 62.460938 477.425781 62.589844 474.664062 62.855469 C 474.449219 62.855469 474.726562 62.917969 474.117188 62.765625 L 473.90625 62.433594 L 473.859375 62.371094 L 473.933594 61.984375 C 475.886719 59.113281 478.46875 56.78125 481.921875 55.523438 C 482.761719 55.214844 483.621094 54.96875 484.5 54.796875 C 486.351562 54.445312 488.21875 54.242188 490.105469 54.191406 C 490.4375 54.175781 490.5 54.097656 490.835938 54.097656 Z M 484.867188 56.398438 C 484.070312 56.53125 483.292969 56.714844 482.523438 56.957031 C 482.222656 57.050781 481.90625 57.167969 481.757812 57.222656 C 479.292969 58.179688 477.21875 59.675781 475.527344 61.703125 C 477.691406 61.46875 479.832031 61.082031 481.945312 60.554688 C 483.976562 60.023438 485.78125 59.066406 487.363281 57.679688 C 487.765625 57.316406 488.761719 56.34375 489.113281 55.96875 C 487.695312 56.023438 486.285156 56.164062 484.882812 56.394531 Z M 490.242188 54.191406 Z M 490.242188 54.191406 Z M 490.242188 54.191406 " fill-opacity="1" fill-rule="evenodd"/><path fill="#556b2f" d="M 455.480469 63.664062 C 459.566406 64.984375 465.507812 67.375 468.113281 70.5 C 468.433594 70.882812 468.714844 71.296875 468.949219 71.738281 L 468.988281 71.804688 C 469.082031 71.972656 470.140625 73.515625 470.40625 74.035156 C 470.660156 74.484375 470.894531 74.992188 470.738281 75.441406 C 470.691406 75.585938 470.609375 75.714844 470.496094 75.824219 C 470.027344 76.175781 469.726562 76.085938 468.957031 75.925781 C 466.996094 75.484375 465.09375 74.851562 463.261719 74.035156 C 458.816406 71.863281 457.75 68.351562 455.316406 65.078125 C 454.734375 64.3125 454.695312 64.382812 454.675781 64.097656 C 454.679688 63.972656 454.726562 63.863281 454.816406 63.773438 C 454.878906 63.707031 454.960938 63.660156 455.050781 63.632812 C 455.179688 63.59375 455.308594 63.59375 455.433594 63.632812 Z M 464.050781 72.628906 C 465.414062 73.183594 466.808594 73.632812 468.242188 73.980469 C 468.164062 73.859375 467.472656 72.832031 467.359375 72.609375 C 467.0625 72 466.675781 71.449219 466.207031 70.953125 C 464 68.652344 459.980469 66.613281 456.957031 65.339844 C 458.976562 67.984375 460.304688 70.980469 464.050781 72.628906 Z M 464.050781 72.628906 " fill-opacity="1" fill-rule="evenodd"/><path fill="#556b2f" d="M 504.46875 57.105469 C 505.085938 56.847656 505.71875 56.625 506.367188 56.4375 C 507.324219 56.191406 508.570312 55.78125 509.871094 55.566406 C 510.265625 55.476562 510.628906 55.539062 510.96875 55.757812 C 511.121094 55.875 511.230469 56.027344 511.292969 56.214844 C 511.355469 56.394531 511.359375 56.582031 511.308594 56.769531 C 511.1875 57.445312 509.847656 59.347656 509.453125 59.855469 C 508.46875 61.125 506.578125 62.058594 504.992188 62.582031 C 502.726562 63.304688 500.410156 63.765625 498.042969 63.964844 C 497.675781 63.992188 497.707031 63.996094 497.535156 63.964844 C 497.425781 63.921875 497.332031 63.847656 497.269531 63.742188 C 497.140625 63.550781 497.15625 63.363281 497.308594 63.191406 C 499.234375 60.585938 501.398438 58.445312 504.46875 57.105469 Z M 508.847656 57.539062 C 506.027344 58.203125 504.40625 58.609375 502.101562 60.179688 C 501.351562 60.710938 500.640625 61.296875 499.976562 61.933594 C 499.75 62.136719 499.378906 62.507812 499.171875 62.722656 C 500.828125 62.429688 502.445312 61.996094 504.027344 61.421875 C 505.390625 60.898438 506.558594 60.351562 507.589844 59.394531 C 507.828125 59.15625 508.042969 58.886719 508.21875 58.597656 C 508.988281 57.394531 508.914062 57.519531 508.839844 57.539062 Z M 509.464844 56.441406 Z M 509.464844 56.441406 " fill-opacity="1" fill-rule="evenodd"/><path fill="#556b2f" d="M 483.753906 68.082031 C 486.789062 68.582031 490.382812 69.429688 492.761719 71.195312 C 493.933594 72.15625 495.03125 73.191406 496.066406 74.296875 C 496.285156 74.492188 496.433594 74.730469 496.523438 75.011719 C 496.578125 75.265625 496.523438 75.496094 496.359375 75.695312 C 495.875 76.226562 495.148438 76.226562 494.371094 76.226562 C 493.144531 76.1875 492.148438 76.027344 491.449219 75.949219 C 488.832031 75.644531 486.527344 74.632812 484.539062 72.90625 C 483.128906 71.722656 480.3125 68.828125 480 68.652344 C 479.835938 68.507812 479.757812 68.460938 479.734375 68.210938 C 479.734375 68.089844 479.773438 67.988281 479.851562 67.894531 C 479.984375 67.746094 480.144531 67.683594 480.34375 67.699219 C 481.097656 67.75 482.476562 67.886719 483.753906 68.082031 Z M 482.082031 69 C 486.449219 72.8125 487.742188 74.230469 493.773438 74.519531 C 493.511719 74.25 492.355469 73.109375 491.953125 72.746094 C 490.859375 71.863281 489.65625 71.175781 488.339844 70.691406 C 486.304688 69.929688 484.222656 69.367188 482.085938 68.988281 Z M 495.097656 74.488281 Z M 495.097656 74.488281 Z M 495.097656 74.488281 Z M 495.097656 74.488281 " fill-opacity="1" fill-rule="evenodd"/><path fill="#556b2f" d="M 324.210938 45.15625 C 324.980469 45.199219 325.292969 45.839844 325.277344 46.539062 C 325.246094 47.6875 324.421875 48.796875 323.828125 50.105469 C 322.203125 53.640625 319.824219 56.195312 315.761719 58.238281 C 315.429688 58.410156 315.355469 58.457031 315.109375 58.441406 C 314.980469 58.425781 314.871094 58.378906 314.78125 58.289062 C 314.714844 58.222656 314.671875 58.148438 314.644531 58.058594 C 314.636719 58.003906 314.636719 57.949219 314.644531 57.894531 C 315.089844 57.9375 315.640625 57.984375 314.644531 57.894531 C 314.878906 54.988281 315.828125 50.992188 317.773438 48.636719 C 319.25 46.875 321.105469 46.335938 323.199219 45.570312 C 323.488281 45.308594 323.824219 45.171875 324.210938 45.15625 Z M 320.09375 48.785156 C 317.789062 50.378906 316.519531 54.300781 315.957031 56.875 C 318.160156 55.570312 319.90625 53.8125 321.203125 51.601562 C 321.648438 50.808594 322.03125 49.980469 322.355469 49.128906 C 322.550781 48.65625 322.953125 47.941406 323.167969 47.40625 C 322.082031 47.734375 321.058594 48.191406 320.09375 48.785156 Z M 323.40625 46.417969 Z M 323.175781 45.570312 Z M 323.175781 45.570312 " fill-opacity="1" fill-rule="evenodd"/><g clip-path="url(#c0a947332c)"><path fill="#556b2f" d="M 512.773438 69.710938 C 512.789062 69.582031 512.847656 69.480469 512.945312 69.402344 C 513.328125 69.125 513.261719 69.265625 515.972656 69.785156 C 519.171875 70.46875 520.558594 71.023438 523.101562 72.847656 C 524.367188 73.8125 525.332031 75.019531 525.992188 76.464844 C 526.058594 76.613281 526.085938 76.765625 526.082031 76.921875 C 526.070312 77.1875 525.957031 77.398438 525.746094 77.5625 C 525.5625 77.699219 525.351562 77.769531 525.121094 77.773438 C 523.933594 77.894531 522.710938 77.636719 521.46875 77.363281 C 519.734375 77.042969 517.96875 75.765625 516.761719 74.601562 C 515.316406 73.210938 514.019531 71.691406 512.878906 70.042969 C 512.800781 69.945312 512.765625 69.835938 512.773438 69.710938 Z M 524.222656 77.039062 Z M 516.886719 72.738281 C 517.902344 73.671875 519.695312 75.105469 521.058594 75.542969 C 521.195312 75.589844 521.335938 75.632812 521.480469 75.667969 C 521.554688 75.691406 523.191406 75.996094 523.710938 76.050781 C 523.402344 75.566406 523.054688 75.117188 522.671875 74.6875 C 522.1875 74.109375 520.75 73.042969 519.628906 72.390625 C 518.1875 71.558594 516.484375 71.128906 514.878906 70.703125 C 515.082031 71.011719 516.410156 72.296875 516.886719 72.738281 Z M 516.886719 72.738281 " fill-opacity="1" fill-rule="evenodd"/></g></svg>