<svg xmlns="http://www.w3.org/2000/svg" xmlns:xlink="http://www.w3.org/1999/xlink" width="800" zoomAndPan="magnify" viewBox="0 0 600 112.499997" height="150" preserveAspectRatio="xMidYMid meet" version="1.0"><defs><clipPath id="0a156ef2ed"><path d="M 3 77 L 17.222656 77 L 17.222656 83.441406 L 3 83.441406 Z M 3 77 " clip-rule="nonzero"/></clipPath><clipPath id="2d83583a57"><path d="M 209 86.421875 L 222.847656 86.421875 L 222.847656 100.125 L 209 100.125 Z M 209 86.421875 " clip-rule="nonzero"/></clipPath><clipPath id="cbdec8a18d"><path d="M 581.449219 50 L 596 50 L 596 56.621094 L 581.449219 56.621094 Z M 581.449219 50 " clip-rule="nonzero"/></clipPath><clipPath id="17bb5d25bf"><path d="M 376 33.953125 L 389 33.953125 L 389 47.679688 L 376 47.679688 Z M 376 33.953125 " clip-rule="nonzero"/></clipPath><clipPath id="5f61657e69"><path d="M 512.90625 69 L 526.8125 69 L 526.8125 77.71875 L 512.90625 77.71875 Z M 512.90625 69 " clip-rule="nonzero"/></clipPath></defs><path fill="#ffffff" d="M 214.03125 80.058594 C 211.214844 78.714844 209.679688 76.898438 208.265625 74.699219 C 207.34375 73.300781 207.703125 73.816406 207.378906 73.476562 C 207.269531 73.371094 207.195312 73.25 207.152344 73.109375 C 207.105469 72.96875 207.09375 72.824219 207.121094 72.675781 C 207.148438 72.53125 207.203125 72.402344 207.296875 72.285156 C 207.386719 72.167969 207.5 72.078125 207.636719 72.019531 C 208.253906 71.707031 209.074219 71.75 209.765625 71.84375 C 212.109375 72.160156 214.195312 73.066406 216.039062 74.558594 C 218.070312 76.207031 219.746094 78.167969 221.0625 80.4375 C 221.285156 80.824219 221.394531 80.960938 221.25 81.261719 C 221.132812 81.457031 220.957031 81.546875 220.730469 81.535156 C 220.730469 81.464844 220.757812 81.027344 220.730469 81.535156 C 218.386719 81.539062 216.15625 81.046875 214.03125 80.058594 Z M 208.542969 73.527344 Z M 208.542969 73.527344 Z M 213.511719 74.738281 C 213.011719 74.472656 212.488281 74.242188 211.949219 74.0625 C 211.21875 73.816406 210.464844 73.644531 209.695312 73.539062 C 210.324219 74.59375 211.042969 75.582031 211.847656 76.507812 C 213.363281 78.1875 215.867188 79.699219 219.105469 80.296875 C 219.515625 80.375 219.597656 80.378906 219.667969 80.394531 C 218.136719 78.285156 215.871094 75.957031 213.503906 74.742188 Z M 207.597656 73.671875 Z M 207.597656 73.671875 " fill-opacity="1" fill-rule="evenodd"/><path fill="#ffffff" d="M 243.082031 96.164062 C 242.878906 96.160156 242.695312 96.097656 242.527344 95.976562 C 242.363281 95.863281 242.253906 95.714844 242.203125 95.523438 C 241.816406 94.1875 243.355469 92.675781 244.15625 91.519531 C 244.90625 90.316406 245.730469 89.167969 246.628906 88.070312 C 248.09375 86.40625 249.5625 85.472656 251.722656 84.582031 C 252.925781 84.082031 253.996094 83.726562 254.117188 83.683594 L 254.257812 83.683594 L 254.480469 83.554688 L 254.863281 83.640625 L 255.089844 83.964844 C 255.207031 84.457031 255.265625 84.957031 255.269531 85.464844 C 255.269531 87.402344 254.464844 89.128906 253.140625 90.605469 C 250.5 93.550781 246.5625 94.804688 244.570312 95.644531 C 243.488281 96.078125 243.414062 96.164062 243.082031 96.164062 Z M 248.871094 91.898438 C 251.851562 90.273438 254.195312 87.96875 254.089844 84.8125 C 249.507812 86.695312 248.261719 87.929688 245.90625 91.945312 C 245.542969 92.550781 245.148438 93.132812 244.710938 93.6875 C 246.144531 93.1875 247.527344 92.589844 248.871094 91.886719 Z M 244.003906 95.09375 Z M 244.003906 95.09375 Z M 244.003906 95.09375 Z M 244.003906 95.09375 Z M 244.003906 95.09375 " fill-opacity="1" fill-rule="evenodd"/><path fill="#ffffff" d="M 259.972656 77.269531 C 259.449219 77.355469 257.480469 77.496094 256.636719 77.527344 C 254.121094 77.621094 250.769531 77.527344 248.480469 76.589844 C 247.289062 76 246.167969 75.300781 245.121094 74.480469 C 243.921875 73.542969 244.472656 73.964844 243.84375 73.449219 C 242.949219 72.722656 243.207031 72.972656 242.828125 72.757812 C 242.707031 72.707031 242.601562 72.632812 242.511719 72.53125 C 242.425781 72.433594 242.359375 72.320312 242.324219 72.191406 C 242.285156 72.0625 242.277344 71.933594 242.296875 71.804688 C 242.320312 71.671875 242.367188 71.550781 242.445312 71.4375 C 242.941406 70.800781 244.417969 70.789062 245.265625 70.816406 C 246.882812 70.921875 249.246094 71.207031 249.824219 71.3125 C 254.367188 72.039062 256.746094 74.03125 259.964844 76.152344 C 260.304688 76.382812 260.378906 76.40625 260.464844 76.628906 C 260.503906 76.75 260.492188 76.867188 260.433594 76.980469 C 260.339844 77.164062 260.191406 77.261719 259.980469 77.277344 C 259.964844 77.191406 259.953125 77.101562 259.972656 77.269531 Z M 258.15625 76.316406 C 255.050781 74.398438 252.75 73.132812 249.023438 72.78125 C 248.667969 72.738281 245.789062 72.511719 245.515625 72.511719 C 246.40625 73.261719 248.3125 74.71875 249.183594 75.113281 C 251.636719 76.210938 255.441406 76.316406 258.15625 76.316406 Z M 243.648438 72.671875 Z M 243.171875 72.929688 Z M 243.171875 72.929688 Z M 243.171875 72.929688 " fill-opacity="1" fill-rule="evenodd"/><path fill="#ffffff" d="M 191.226562 75.785156 C 190.761719 75.183594 189.707031 73.714844 189.464844 73.007812 C 189.378906 72.804688 189.367188 72.597656 189.421875 72.386719 C 189.480469 72.175781 189.597656 72.003906 189.769531 71.875 C 190.023438 71.695312 190.300781 71.574219 190.609375 71.507812 C 191.644531 71.355469 192.667969 71.410156 193.683594 71.675781 C 198.242188 72.746094 200.007812 76.492188 202.523438 79.304688 C 202.742188 79.550781 202.867188 79.640625 202.796875 79.960938 C 202.757812 80.078125 202.683594 80.171875 202.582031 80.238281 C 202.5 80.289062 202.414062 80.320312 202.316406 80.328125 C 202.253906 80.335938 202.191406 80.335938 202.128906 80.328125 C 198.988281 79.738281 193.136719 78.1875 191.226562 75.785156 Z M 191.609375 73.117188 C 192.105469 73.929688 192.761719 74.855469 192.820312 74.921875 C 192.921875 75.035156 193.027344 75.144531 193.140625 75.246094 C 194.839844 76.796875 198.261719 78.054688 200.523438 78.773438 C 197.949219 75.894531 195.917969 73.117188 191.601562 73.117188 Z M 190.953125 73.222656 Z M 190.953125 73.222656 " fill-opacity="1" fill-rule="evenodd"/><path fill="#ffffff" d="M 4.78125 93.886719 C 4.398438 93.449219 4.519531 93.109375 4.722656 92.691406 C 5.355469 91.511719 6.179688 90.488281 7.195312 89.625 C 9.226562 87.871094 11.339844 87.371094 12.960938 86.882812 C 14.585938 86.398438 14.5 86.289062 14.679688 86.273438 L 14.78125 86.152344 L 15.164062 86.082031 L 15.496094 86.308594 L 15.574219 86.695312 C 15.40625 87.53125 15.117188 88.324219 14.710938 89.074219 C 13.460938 91.3125 12.183594 92.175781 9.933594 92.992188 C 8.726562 93.460938 7.488281 93.804688 6.21875 94.035156 C 5.636719 94.222656 5.238281 94.273438 4.78125 93.886719 Z M 10.8125 90.921875 C 11.9375 90.386719 12.832031 89.585938 13.5 88.527344 C 13.644531 88.3125 13.882812 87.898438 13.957031 87.75 C 12.300781 88.449219 10.800781 88.722656 8.890625 90.277344 C 8.265625 90.796875 7.714844 91.386719 7.234375 92.046875 C 8.449219 91.75 9.640625 91.371094 10.8125 90.921875 Z M 6.363281 93.542969 Z M 6.332031 94.015625 Z M 6.332031 94.015625 " fill-opacity="1" fill-rule="evenodd"/><g clip-path="url(#0a156ef2ed)"><path fill="#ffffff" d="M 12.953125 83.285156 C 9.207031 83.285156 6.382812 81.046875 3.96875 80.144531 C 3.746094 80.140625 3.542969 80.066406 3.367188 79.921875 C 3.191406 79.777344 3.078125 79.59375 3.027344 79.371094 C 2.992188 79.171875 3.023438 78.984375 3.117188 78.808594 C 3.214844 78.628906 3.347656 78.5 3.53125 78.417969 C 3.683594 78.347656 3.839844 78.300781 4 78.269531 C 5.09375 78.023438 7.308594 77.441406 8.800781 77.394531 C 10.765625 77.339844 12.589844 78.171875 14.15625 79.292969 C 15.113281 80.039062 16.035156 80.828125 16.914062 81.671875 L 17.082031 82.035156 C 17.003906 82.203125 16.949219 82.382812 16.921875 82.570312 C 16.539062 82.824219 16.652344 82.78125 16.28125 82.863281 C 15.1875 83.125 14.078125 83.269531 12.953125 83.285156 Z M 4.328125 78.222656 Z M 15.519531 81.933594 C 14.066406 80.769531 12.539062 79.605469 10.710938 79.148438 C 9.171875 78.761719 8.160156 79.042969 6.558594 79.421875 C 9.898438 81.257812 11.609375 82.367188 15.519531 81.933594 Z M 4.371094 79.996094 Z M 4.371094 79.996094 Z M 4.011719 80.164062 Z M 4.011719 80.164062 " fill-opacity="1" fill-rule="evenodd"/></g><path fill="#ffffff" d="M 29.109375 75.472656 C 28.113281 75.472656 27.125 75.386719 26.140625 75.207031 C 24.667969 74.929688 23.230469 74.511719 21.84375 73.941406 C 21.210938 73.742188 20.609375 73.484375 20.027344 73.164062 C 19.746094 73.03125 19.550781 72.8125 19.445312 72.511719 C 19.324219 72.003906 19.597656 71.511719 20.332031 71.371094 C 22.09375 70.945312 22.660156 70.261719 25.792969 70.1875 C 26.675781 70.15625 27.542969 70.265625 28.390625 70.515625 C 30.601562 71.242188 31.699219 72.742188 34.019531 73.304688 L 34.375 73.527344 C 34.453125 73.84375 34.421875 73.78125 34.5 73.851562 C 34.511719 73.980469 34.511719 74.109375 34.5 74.238281 L 34.210938 74.519531 C 33.019531 75.027344 31.78125 75.328125 30.492188 75.417969 C 29.894531 75.46875 29.269531 75.476562 29.109375 75.472656 Z M 20.476562 71.355469 Z M 20.476562 71.355469 Z M 31.578125 74.054688 C 31.738281 74.054688 32.453125 73.941406 32.378906 73.941406 C 30.96875 73.382812 30.351562 72.898438 29.023438 72.265625 C 27.972656 71.804688 27.394531 71.636719 25.824219 71.722656 C 24.742188 71.769531 23.699219 71.988281 22.6875 72.390625 C 22.757812 72.421875 22.933594 72.480469 23.074219 72.535156 C 23.824219 72.863281 24.59375 73.136719 25.378906 73.371094 C 26.097656 73.585938 26.828125 73.757812 27.570312 73.890625 C 28.894531 74.132812 30.222656 74.191406 31.5625 74.058594 Z M 20.691406 73.070312 Z M 20.691406 73.070312 " fill-opacity="1" fill-rule="evenodd"/><path fill="#ffffff" d="M 146.742188 86.234375 C 146.484375 86.183594 146.230469 86.183594 145.972656 86.234375 C 144.949219 86.320312 144.394531 85.320312 145.152344 84.578125 C 145.800781 83.953125 148.027344 82.851562 148.894531 82.417969 C 154.621094 79.589844 159.691406 78.613281 164.8125 78.71875 C 164.945312 78.722656 165.066406 78.761719 165.167969 78.839844 C 165.230469 78.886719 165.277344 78.941406 165.3125 79.011719 C 165.347656 79.078125 165.363281 79.152344 165.363281 79.226562 C 165.363281 79.304688 165.347656 79.378906 165.3125 79.445312 C 165.277344 79.511719 165.230469 79.566406 165.167969 79.613281 C 162.644531 81.742188 158.753906 84.320312 155.445312 85.582031 C 151.496094 87.097656 150.082031 86.414062 146.742188 86.234375 Z M 152.636719 84.722656 C 156.113281 84.113281 160.191406 81.738281 163.058594 79.847656 C 157.582031 80.234375 153.023438 82.046875 148.367188 84.621094 C 150.191406 84.824219 151.035156 85 152.636719 84.722656 Z M 146.535156 85.746094 Z M 146.535156 85.746094 Z M 146.28125 86.1875 Z M 146.28125 86.1875 " fill-opacity="1" fill-rule="evenodd"/><path fill="#ffffff" d="M 166.863281 97.140625 C 166.121094 97.140625 165.667969 96.605469 165.777344 95.976562 C 165.878906 95.652344 166.011719 95.339844 166.183594 95.046875 C 167.292969 93.195312 168.710938 91.632812 170.449219 90.363281 C 175.402344 86.613281 183.707031 84.464844 190.21875 84.191406 C 190.769531 84.167969 190.960938 84.128906 191.199219 84.410156 C 191.273438 84.511719 191.300781 84.621094 191.289062 84.746094 C 190.847656 84.703125 190.292969 84.648438 191.289062 84.746094 C 190.863281 89.273438 185.695312 93.078125 181.183594 95.027344 C 177.40625 96.636719 174.644531 96.871094 170.085938 96.96875 C 167.277344 97.027344 168.210938 96.929688 167.355469 97.082031 C 167.195312 97.117188 167.03125 97.136719 166.863281 97.140625 Z M 175.039062 94.980469 C 180.550781 94.410156 186.238281 91.175781 188.734375 87.878906 C 189.359375 87.089844 189.804688 86.214844 190.074219 85.246094 C 187.839844 85.445312 185.628906 85.8125 183.445312 86.34375 C 177.597656 87.765625 171.203125 90.496094 168.160156 95.257812 C 170.488281 95.25 172.738281 95.21875 175.039062 94.980469 Z M 167.871094 96.988281 Z M 167.871094 96.988281 " fill-opacity="1" fill-rule="evenodd"/><path fill="#ffffff" d="M 191.753906 97.929688 C 190.910156 97.761719 190.648438 96.910156 190.734375 96.125 C 190.839844 95.203125 191.386719 94.320312 191.835938 93.511719 C 192.332031 92.550781 192.984375 91.710938 193.78125 90.984375 C 195.96875 88.992188 198.867188 88.109375 201.59375 86.632812 C 202.183594 86.316406 202.15625 86.285156 202.429688 86.292969 C 202.558594 86.300781 202.675781 86.351562 202.773438 86.445312 C 202.925781 86.578125 202.96875 86.742188 202.910156 86.9375 C 202.683594 87.726562 202.417969 88.503906 202.105469 89.265625 C 201.125 91.699219 199.621094 94.273438 197.386719 95.824219 C 196.796875 96.226562 196.164062 96.542969 195.492188 96.78125 C 194.757812 97.058594 192.554688 97.8125 192.03125 97.945312 C 191.941406 97.949219 191.847656 97.945312 191.753906 97.929688 Z M 195.917969 94.726562 C 198.335938 93.421875 200.148438 90.464844 201.246094 88.101562 C 198.8125 89.492188 196.207031 90.527344 194.488281 92.554688 C 194.058594 93.078125 193.699219 93.648438 193.414062 94.269531 C 193.117188 94.789062 192.867188 95.335938 192.667969 95.902344 C 193.777344 95.585938 194.867188 95.191406 195.929688 94.726562 Z M 192.609375 96.535156 Z M 192.609375 96.535156 Z M 192.609375 96.535156 Z M 192.609375 96.535156 Z M 192.609375 96.535156 Z M 192.609375 96.535156 " fill-opacity="1" fill-rule="evenodd"/><g clip-path="url(#2d83583a57)"><path fill="#ffffff" d="M 222.121094 87.402344 C 221.863281 89.863281 220.878906 92.996094 219.214844 95.09375 C 218.507812 95.996094 217.648438 96.714844 216.632812 97.238281 C 215.527344 97.855469 214.027344 98.636719 212.882812 99.214844 C 211.175781 100.085938 211.128906 100.125 210.679688 100.085938 C 210.449219 100.042969 210.253906 99.933594 210.097656 99.746094 C 209.9375 99.535156 209.84375 99.300781 209.820312 99.027344 C 209.660156 97.609375 211.066406 93.8125 211.742188 92.628906 C 212.226562 91.882812 212.8125 91.238281 213.507812 90.691406 C 215.613281 88.964844 218.707031 87.695312 221.390625 86.851562 C 221.519531 86.8125 221.648438 86.8125 221.777344 86.851562 C 221.894531 86.890625 221.996094 86.964844 222.070312 87.066406 C 222.140625 87.167969 222.167969 87.28125 222.148438 87.402344 C 221.695312 87.351562 221.148438 87.292969 222.121094 87.402344 Z M 216.355469 95.488281 C 217.226562 94.945312 217.953125 94.246094 218.53125 93.394531 C 219.601562 91.792969 220.367188 90.058594 220.816406 88.1875 C 218.734375 89.03125 216.480469 90.125 214.78125 91.546875 C 214.167969 92.050781 213.640625 92.640625 213.21875 93.320312 C 212.59375 94.761719 212.121094 96.253906 211.792969 97.792969 C 212.476562 97.460938 215.894531 95.769531 216.355469 95.488281 Z M 216.355469 95.488281 " fill-opacity="1" fill-rule="evenodd"/></g><path fill="#ffffff" d="M 6.792969 87.253906 L 6.535156 86.945312 C 6.535156 86.902344 6.535156 87.082031 6.589844 86.558594 L 6.929688 86.320312 C 7.109375 86.292969 8.851562 85.820312 9.234375 85.707031 C 24.183594 81.519531 39.523438 72.761719 53.007812 69.242188 C 66.78125 65.585938 83.191406 65.410156 97.453125 66.089844 C 105.460938 66.4375 121.417969 67.597656 123.046875 67.792969 C 129.828125 68.507812 137.355469 70.507812 143.996094 72.136719 C 151.203125 73.839844 167.296875 77.117188 174.8125 78.570312 C 194.261719 82.296875 212.691406 84.796875 232.269531 83.828125 C 244.90625 83.183594 253.152344 81.503906 264.507812 79.011719 C 270.738281 77.644531 277.277344 76.007812 282.964844 73.285156 C 284.679688 72.476562 286.308594 71.515625 287.855469 70.417969 C 287.949219 70.347656 288.242188 70.140625 288.5 69.929688 L 288.886719 69.8125 L 289.269531 69.984375 L 289.394531 70.351562 L 289.207031 70.695312 C 289.121094 70.753906 288.902344 70.933594 288.535156 71.203125 C 283.628906 74.886719 276.324219 77.292969 270.207031 78.898438 C 266.027344 79.984375 257.359375 81.867188 254.945312 82.363281 C 230.820312 87.242188 208.457031 86.03125 184.019531 81.953125 C 171.964844 79.929688 150.109375 75.390625 143.292969 73.726562 C 125.191406 69.246094 126.347656 69.59375 109.308594 68.371094 C 100.222656 67.734375 95.265625 67.523438 90.125 67.367188 C 64.242188 66.746094 52.960938 69.828125 38.996094 75.507812 C 29.046875 79.449219 19.511719 84.191406 7.234375 87.292969 Z M 6.792969 87.253906 " fill-opacity="1" fill-rule="evenodd"/><path fill="#ffffff" d="M 42.84375 86.6875 C 42.546875 86.648438 42.316406 86.503906 42.148438 86.257812 C 42.058594 86.117188 42.011719 85.96875 41.996094 85.808594 C 41.929688 84.988281 42.90625 82.359375 43.148438 81.832031 C 45.257812 77.199219 48.308594 76.113281 50.925781 73.691406 C 51.816406 72.917969 51.410156 73.140625 52 72.890625 L 52.15625 72.941406 L 52.292969 72.867188 L 52.675781 72.960938 L 52.90625 73.285156 L 52.90625 73.378906 C 53.671875 77.363281 51.800781 81.613281 48.328125 84.058594 C 46.847656 85.136719 45.183594 85.730469 44.230469 86.1875 C 43.238281 86.703125 43.195312 86.699219 42.84375 86.6875 Z M 47.917969 82.257812 C 48.960938 81.441406 49.832031 80.464844 50.519531 79.328125 C 51.46875 77.792969 51.925781 76.121094 51.894531 74.3125 C 51.085938 75.191406 49.320312 76.609375 48.53125 77.292969 C 46.367188 79.175781 45.109375 80.90625 44.164062 84.300781 C 45.789062 83.609375 46.636719 83.238281 47.917969 82.257812 Z M 43.863281 85.648438 Z M 43.863281 85.648438 Z M 43.863281 85.648438 " fill-opacity="1" fill-rule="evenodd"/><path fill="#ffffff" d="M 33.28125 86.746094 C 33.039062 86.761719 32.816406 86.6875 32.628906 86.527344 C 32.441406 86.367188 32.332031 86.164062 32.308594 85.917969 C 32.234375 84.578125 32.546875 83.339844 33.25 82.207031 C 34.242188 80.625 36.757812 78.5625 38.28125 77.390625 C 39.371094 76.566406 39.433594 76.535156 39.613281 76.492188 C 39.75 76.46875 39.878906 76.488281 40 76.554688 C 40.109375 76.609375 40.191406 76.703125 40.238281 76.824219 C 40.265625 76.878906 40.277344 76.9375 40.273438 77 C 40.339844 78.144531 40.257812 79.28125 40.03125 80.40625 C 39.730469 82.085938 38.988281 83.539062 37.796875 84.75 C 37.164062 85.371094 36.441406 85.84375 35.617188 86.164062 C 34.871094 86.496094 34.09375 86.6875 33.28125 86.746094 Z M 38.789062 79.46875 C 38.816406 79.339844 39.015625 78.433594 39.015625 78.308594 C 37.902344 79.285156 36.855469 80.328125 35.878906 81.445312 C 34.832031 82.710938 34.386719 83.292969 34.199219 84.808594 C 36.859375 84.042969 38.125 82.042969 38.789062 79.46875 Z M 34.175781 85.71875 Z M 34.175781 85.71875 " fill-opacity="1" fill-rule="evenodd"/><path fill="#ffffff" d="M 58.109375 82.578125 C 57.480469 82.101562 57.394531 81.363281 57.425781 80.640625 C 57.484375 79.878906 57.601562 79.125 57.773438 78.382812 C 58.046875 76.917969 58.59375 75.558594 59.410156 74.316406 C 59.910156 73.554688 60.476562 72.851562 61.113281 72.203125 C 61.84375 71.460938 62.640625 70.792969 63.496094 70.207031 L 63.914062 70.105469 C 64.296875 70.285156 64.1875 70.246094 64.363281 70.277344 L 64.609375 70.589844 C 64.980469 71.828125 65.160156 73.085938 65.140625 74.378906 C 65.050781 76.617188 64.335938 78.464844 62.566406 80.347656 C 61.988281 80.9375 60.089844 82.59375 59.109375 82.792969 C 58.742188 82.871094 58.410156 82.800781 58.109375 82.578125 Z M 59.261719 80.765625 C 59.800781 80.402344 60.496094 79.839844 61.011719 79.414062 C 61.800781 78.691406 62.441406 77.851562 62.929688 76.894531 C 63.132812 76.496094 63.296875 76.074219 63.421875 75.644531 C 63.796875 74.269531 63.867188 72.878906 63.628906 71.46875 C 62.453125 72.476562 61.480469 73.648438 60.710938 74.984375 C 60.355469 75.621094 60.0625 76.285156 59.847656 76.980469 C 59.574219 77.894531 59.394531 78.832031 59.3125 79.785156 C 59.269531 80.109375 59.253906 80.4375 59.261719 80.765625 Z M 59.332031 81.292969 Z M 59.332031 81.292969 Z M 59.332031 81.292969 " fill-opacity="1" fill-rule="evenodd"/><path fill="#ffffff" d="M 42.175781 68.511719 C 41.226562 68.304688 40.300781 68.003906 39.410156 67.609375 C 37.839844 66.898438 37.164062 66.355469 35.714844 65.214844 C 35.464844 65.015625 35.398438 65.011719 35.246094 64.753906 C 35.15625 64.53125 35.144531 64.308594 35.21875 64.082031 C 35.292969 63.855469 35.425781 63.683594 35.628906 63.558594 C 35.976562 63.324219 36.347656 63.15625 36.75 63.054688 C 37.683594 62.792969 38.628906 62.601562 39.589844 62.484375 C 40.683594 62.382812 41.773438 62.433594 42.855469 62.636719 C 46.507812 63.386719 47.890625 65.773438 51.34375 66.742188 L 51.683594 66.992188 L 51.683594 67.085938 L 51.96875 67.136719 L 52.21875 67.441406 L 52.148438 67.828125 L 51.808594 68.066406 C 51.503906 68.058594 47.171875 69.605469 42.175781 68.511719 Z M 49.007812 67.4375 L 49.707031 67.363281 C 46.214844 66.113281 44.445312 63.488281 39.789062 64.109375 C 38.8125 64.265625 37.84375 64.496094 37.757812 64.539062 C 38.226562 64.914062 38.714844 65.261719 39.222656 65.574219 C 40.0625 66.0625 40.941406 66.457031 41.863281 66.746094 C 44.199219 67.480469 46.578125 67.714844 49.007812 67.4375 Z M 36.835938 64.875 Z M 36.835938 64.875 Z M 36.835938 64.875 " fill-opacity="1" fill-rule="evenodd"/><path fill="#ffffff" d="M 107.757812 79.675781 C 107.394531 79.699219 107.121094 79.558594 106.925781 79.257812 C 106.730469 78.953125 106.714844 78.644531 106.886719 78.324219 C 107.113281 77.839844 107.40625 77.402344 107.78125 77.019531 C 108.144531 76.609375 109.316406 75.464844 110.023438 74.878906 C 111.851562 73.359375 113.917969 72.335938 116.230469 71.816406 C 118.769531 71.21875 121.183594 71.085938 123.945312 70.816406 C 124.164062 70.816406 123.882812 70.753906 124.492188 70.910156 L 124.707031 71.246094 L 124.753906 71.3125 L 124.683594 71.699219 C 122.722656 74.609375 120.136719 76.964844 116.679688 78.238281 C 115.839844 78.550781 114.980469 78.796875 114.101562 78.96875 C 112.246094 79.328125 110.375 79.527344 108.488281 79.578125 C 108.160156 79.597656 108.09375 79.675781 107.757812 79.675781 Z M 113.730469 77.351562 C 114.527344 77.21875 115.308594 77.03125 116.074219 76.785156 C 116.382812 76.691406 116.695312 76.574219 116.847656 76.519531 C 119.3125 75.546875 121.390625 74.039062 123.082031 71.984375 C 120.914062 72.226562 118.773438 72.613281 116.65625 73.148438 C 114.625 73.683594 112.816406 74.65625 111.238281 76.050781 C 110.832031 76.421875 109.835938 77.40625 109.480469 77.785156 C 110.902344 77.734375 112.316406 77.589844 113.714844 77.355469 Z M 108.351562 79.578125 Z M 108.351562 79.578125 Z M 108.351562 79.578125 " fill-opacity="1" fill-rule="evenodd"/><path fill="#ffffff" d="M 143.148438 70.007812 C 139.058594 68.667969 133.113281 66.25 130.503906 63.089844 C 130.179688 62.699219 129.902344 62.28125 129.664062 61.835938 L 129.628906 61.769531 C 129.53125 61.601562 128.472656 60.039062 128.210938 59.511719 C 127.953125 59.054688 127.71875 58.542969 127.875 58.09375 C 127.921875 57.9375 128.003906 57.8125 128.121094 57.707031 C 128.585938 57.347656 128.886719 57.4375 129.65625 57.601562 C 131.621094 58.046875 133.527344 58.6875 135.363281 59.511719 C 139.808594 61.710938 140.875 65.261719 143.316406 68.570312 C 143.898438 69.347656 143.9375 69.277344 143.957031 69.5625 C 143.953125 69.6875 143.90625 69.796875 143.816406 69.890625 C 143.75 69.960938 143.667969 70.007812 143.578125 70.039062 C 143.453125 70.078125 143.324219 70.078125 143.195312 70.039062 Z M 134.574219 60.933594 C 133.207031 60.375 131.808594 59.921875 130.378906 59.570312 C 130.457031 59.6875 131.148438 60.734375 131.257812 60.953125 C 131.558594 61.570312 131.941406 62.128906 132.410156 62.625 C 134.621094 64.953125 138.644531 67.019531 141.671875 68.308594 C 139.648438 65.632812 138.316406 62.597656 134.574219 60.933594 Z M 134.574219 60.933594 " fill-opacity="1" fill-rule="evenodd"/><path fill="#ffffff" d="M 94.113281 76.632812 C 93.492188 76.898438 92.859375 77.125 92.210938 77.3125 C 91.253906 77.5625 90.007812 77.976562 88.703125 78.195312 C 88.3125 78.285156 87.949219 78.21875 87.605469 78 C 87.449219 77.878906 87.34375 77.726562 87.28125 77.539062 C 87.21875 77.351562 87.214844 77.164062 87.265625 76.976562 C 87.386719 76.292969 88.730469 74.367188 89.125 73.855469 C 90.105469 72.566406 92 71.625 93.585938 71.09375 C 95.855469 70.363281 98.175781 69.898438 100.546875 69.699219 C 100.910156 69.671875 100.875 69.667969 101.050781 69.699219 C 101.164062 69.742188 101.253906 69.816406 101.320312 69.921875 C 101.441406 70.117188 101.429688 70.304688 101.28125 70.484375 C 99.347656 73.117188 97.1875 75.277344 94.113281 76.632812 Z M 89.726562 76.199219 C 92.550781 75.523438 94.175781 75.113281 96.480469 73.527344 C 97.234375 72.992188 97.941406 72.398438 98.609375 71.753906 C 98.835938 71.546875 99.203125 71.171875 99.417969 70.953125 C 97.757812 71.25 96.140625 71.6875 94.554688 72.269531 C 93.1875 72.800781 92.019531 73.351562 90.988281 74.320312 C 90.746094 74.5625 90.535156 74.828125 90.355469 75.125 C 89.589844 76.34375 89.660156 76.21875 89.734375 76.199219 Z M 89.113281 77.308594 Z M 89.113281 77.308594 " fill-opacity="1" fill-rule="evenodd"/><path fill="#ffffff" d="M 114.847656 65.535156 C 111.8125 65.027344 108.210938 64.167969 105.828125 62.386719 C 104.660156 61.410156 103.558594 60.363281 102.523438 59.246094 C 102.304688 59.046875 102.152344 58.808594 102.0625 58.523438 C 102.007812 58.269531 102.0625 58.035156 102.230469 57.835938 C 102.710938 57.296875 103.441406 57.296875 104.21875 57.296875 C 105.445312 57.335938 106.445312 57.496094 107.144531 57.578125 C 109.765625 57.878906 112.070312 58.910156 114.0625 60.65625 C 115.472656 61.851562 118.292969 64.78125 118.605469 64.953125 C 118.769531 65.105469 118.847656 65.152344 118.875 65.40625 C 118.875 65.523438 118.832031 65.628906 118.753906 65.722656 C 118.621094 65.871094 118.457031 65.9375 118.261719 65.921875 C 117.507812 65.871094 116.121094 65.734375 114.847656 65.535156 Z M 116.519531 64.605469 C 112.148438 60.753906 110.855469 59.316406 104.820312 59.023438 C 105.078125 59.292969 106.234375 60.449219 106.640625 60.816406 C 107.734375 61.710938 108.941406 62.402344 110.257812 62.894531 C 112.292969 63.664062 114.375 64.238281 116.515625 64.617188 Z M 103.492188 59.050781 Z M 103.492188 59.050781 Z M 103.492188 59.050781 Z M 103.492188 59.050781 " fill-opacity="1" fill-rule="evenodd"/><path fill="#ffffff" d="M 274.550781 88.722656 C 273.78125 88.679688 273.46875 88.027344 273.484375 87.324219 C 273.519531 86.164062 274.34375 85.039062 274.9375 83.710938 C 276.5625 80.136719 278.945312 77.558594 283.011719 75.488281 C 283.34375 75.316406 283.417969 75.265625 283.667969 75.28125 C 283.792969 75.296875 283.902344 75.351562 283.992188 75.4375 C 284.058594 75.503906 284.101562 75.582031 284.128906 75.667969 C 284.136719 75.726562 284.136719 75.785156 284.128906 75.839844 C 283.6875 75.796875 283.128906 75.742188 284.128906 75.839844 C 283.894531 78.773438 282.945312 82.816406 281 85.203125 C 279.519531 86.984375 277.664062 87.527344 275.566406 88.300781 C 275.28125 88.566406 274.941406 88.707031 274.550781 88.722656 Z M 278.675781 85.050781 C 280.984375 83.4375 282.25 79.472656 282.816406 76.867188 C 280.613281 78.191406 278.863281 79.96875 277.566406 82.203125 C 277.121094 83.003906 276.734375 83.839844 276.414062 84.707031 C 276.210938 85.183594 275.8125 85.90625 275.597656 86.449219 C 276.6875 86.113281 277.710938 85.652344 278.675781 85.050781 Z M 275.359375 87.445312 Z M 275.589844 88.300781 Z M 275.589844 88.300781 " fill-opacity="1" fill-rule="evenodd"/><path fill="#ffffff" d="M 85.796875 63.886719 C 85.78125 64.015625 85.722656 64.121094 85.628906 64.203125 C 85.242188 64.476562 85.308594 64.335938 82.601562 63.8125 C 79.390625 63.121094 78.007812 62.554688 75.460938 60.714844 C 74.191406 59.734375 73.230469 58.515625 72.566406 57.054688 C 72.503906 56.90625 72.472656 56.75 72.476562 56.59375 C 72.488281 56.324219 72.601562 56.109375 72.808594 55.945312 C 72.996094 55.808594 73.207031 55.734375 73.4375 55.730469 C 74.625 55.605469 75.851562 55.871094 77.09375 56.144531 C 78.832031 56.46875 80.59375 57.765625 81.808594 58.941406 C 83.257812 60.347656 84.550781 61.886719 85.691406 63.550781 C 85.769531 63.652344 85.804688 63.761719 85.796875 63.886719 Z M 74.339844 56.472656 Z M 81.679688 60.824219 C 80.664062 59.878906 78.871094 58.433594 77.503906 57.988281 C 77.367188 57.9375 77.226562 57.894531 77.082031 57.863281 C 77.007812 57.839844 75.371094 57.53125 74.847656 57.472656 C 75.15625 57.960938 75.503906 58.421875 75.890625 58.851562 C 76.375 59.4375 77.8125 60.515625 78.933594 61.179688 C 80.382812 62.019531 82.085938 62.457031 83.691406 62.882812 C 83.484375 62.566406 82.15625 61.273438 81.679688 60.824219 Z M 81.679688 60.824219 " fill-opacity="1" fill-rule="evenodd"/><path fill="#ffde59" d="M 384.78125 53.839844 C 387.59375 55.167969 389.121094 56.96875 390.542969 59.148438 C 391.457031 60.535156 391.101562 60.023438 391.421875 60.363281 C 391.53125 60.464844 391.605469 60.585938 391.652344 60.726562 C 391.699219 60.863281 391.710938 61.007812 391.683594 61.152344 C 391.65625 61.296875 391.597656 61.425781 391.507812 61.542969 C 391.414062 61.660156 391.300781 61.746094 391.167969 61.804688 C 390.554688 62.113281 389.730469 62.070312 389.035156 61.976562 C 386.699219 61.664062 384.609375 60.769531 382.769531 59.289062 C 380.738281 57.65625 379.066406 55.714844 377.753906 53.464844 C 377.527344 53.082031 377.417969 52.945312 377.5625 52.644531 C 377.683594 52.453125 377.855469 52.363281 378.082031 52.378906 C 378.082031 52.445312 378.054688 52.878906 378.082031 52.378906 C 380.421875 52.371094 382.652344 52.859375 384.78125 53.839844 Z M 390.257812 60.3125 Z M 390.257812 60.3125 Z M 385.296875 59.109375 C 385.800781 59.375 386.320312 59.601562 386.855469 59.78125 C 387.589844 60.027344 388.339844 60.199219 389.105469 60.300781 C 388.480469 59.253906 387.761719 58.273438 386.957031 57.355469 C 385.445312 55.695312 382.941406 54.195312 379.707031 53.601562 C 379.296875 53.527344 379.210938 53.523438 379.140625 53.507812 C 380.675781 55.597656 382.9375 57.902344 385.304688 59.105469 Z M 391.207031 60.167969 Z M 391.207031 60.167969 " fill-opacity="1" fill-rule="evenodd"/><path fill="#ffde59" d="M 355.746094 37.882812 C 355.949219 37.886719 356.136719 37.945312 356.300781 38.0625 C 356.464844 38.175781 356.574219 38.324219 356.628906 38.515625 C 357.011719 39.835938 355.476562 41.335938 354.671875 42.480469 C 353.925781 43.675781 353.101562 44.816406 352.203125 45.898438 C 350.738281 47.550781 349.273438 48.476562 347.113281 49.355469 C 345.910156 49.851562 344.839844 50.203125 344.722656 50.246094 L 344.578125 50.246094 L 344.359375 50.375 L 343.976562 50.285156 L 343.746094 49.96875 C 343.632812 49.480469 343.574219 48.984375 343.570312 48.484375 C 343.570312 46.5625 344.375 44.851562 345.695312 43.386719 C 348.332031 40.46875 352.269531 39.226562 354.261719 38.394531 C 355.339844 37.964844 355.417969 37.882812 355.746094 37.882812 Z M 349.960938 42.101562 C 346.984375 43.71875 344.644531 46 344.746094 49.125 C 349.324219 47.265625 350.570312 46.039062 352.925781 42.0625 C 353.285156 41.460938 353.6875 40.886719 354.117188 40.335938 C 352.6875 40.828125 351.304688 41.421875 349.960938 42.113281 Z M 354.824219 38.941406 Z M 354.824219 38.941406 Z M 354.824219 38.941406 Z M 354.824219 38.941406 Z M 354.824219 38.941406 " fill-opacity="1" fill-rule="evenodd"/><path fill="#ffde59" d="M 338.871094 56.601562 C 339.394531 56.519531 341.359375 56.378906 342.203125 56.347656 C 344.71875 56.253906 348.066406 56.347656 350.351562 57.277344 C 351.542969 57.859375 352.664062 58.554688 353.714844 59.367188 C 354.910156 60.296875 354.359375 59.878906 354.988281 60.390625 C 355.878906 61.109375 355.621094 60.859375 356 61.074219 C 356.125 61.125 356.226562 61.199219 356.316406 61.296875 C 356.402344 61.390625 356.46875 61.507812 356.503906 61.632812 C 356.542969 61.761719 356.550781 61.890625 356.53125 62.019531 C 356.507812 62.152344 356.460938 62.269531 356.382812 62.378906 C 355.886719 63.011719 354.410156 63.023438 353.5625 62.996094 C 351.953125 62.890625 349.589844 62.609375 349.007812 62.503906 C 344.46875 61.785156 342.09375 59.8125 338.878906 57.710938 C 338.542969 57.480469 338.464844 57.457031 338.375 57.238281 C 338.339844 57.117188 338.347656 57 338.40625 56.890625 C 338.503906 56.707031 338.652344 56.609375 338.859375 56.59375 C 338.878906 56.679688 338.890625 56.769531 338.871094 56.601562 Z M 340.683594 57.546875 C 343.789062 59.449219 346.085938 60.703125 349.808594 61.050781 C 350.164062 61.09375 353.042969 61.316406 353.316406 61.316406 C 352.421875 60.574219 350.519531 59.128906 349.65625 58.738281 C 347.199219 57.652344 343.394531 57.546875 340.683594 57.546875 Z M 355.179688 61.160156 Z M 355.65625 60.902344 Z M 355.65625 60.902344 Z M 355.65625 60.902344 " fill-opacity="1" fill-rule="evenodd"/><path fill="#ffde59" d="M 407.566406 58.074219 C 408.03125 58.667969 409.082031 60.125 409.320312 60.824219 C 409.40625 61.027344 409.421875 61.234375 409.363281 61.441406 C 409.3125 61.648438 409.195312 61.820312 409.019531 61.949219 C 408.761719 62.125 408.488281 62.246094 408.179688 62.3125 C 407.144531 62.460938 406.125 62.40625 405.109375 62.144531 C 400.554688 61.085938 398.792969 57.371094 396.277344 54.585938 C 396.054688 54.339844 395.929688 54.253906 396 53.933594 C 396.039062 53.816406 396.113281 53.730469 396.21875 53.660156 C 396.300781 53.609375 396.386719 53.582031 396.480469 53.570312 C 396.542969 53.5625 396.605469 53.5625 396.667969 53.570312 C 399.808594 54.15625 405.660156 55.695312 407.566406 58.074219 Z M 407.179688 60.71875 C 406.683594 59.914062 406.027344 58.992188 405.96875 58.925781 C 405.867188 58.816406 405.765625 58.707031 405.65625 58.605469 C 403.953125 57.070312 400.535156 55.824219 398.273438 55.109375 C 400.847656 57.964844 402.878906 60.71875 407.1875 60.71875 Z M 407.835938 60.613281 Z M 407.835938 60.613281 " fill-opacity="1" fill-rule="evenodd"/><path fill="#ffde59" d="M 593.871094 40.140625 C 594.253906 40.570312 594.128906 40.910156 593.929688 41.320312 C 593.300781 42.492188 592.472656 43.503906 591.457031 44.363281 C 589.429688 46.097656 587.316406 46.59375 585.695312 47.074219 C 584.074219 47.558594 584.15625 47.667969 583.980469 47.683594 L 583.878906 47.804688 L 583.492188 47.871094 L 583.164062 47.648438 L 583.082031 47.265625 C 583.253906 46.433594 583.539062 45.648438 583.949219 44.90625 C 585.195312 42.6875 586.46875 41.832031 588.71875 41.019531 C 589.925781 40.558594 591.164062 40.21875 592.433594 39.992188 C 593.011719 39.800781 593.410156 39.757812 593.871094 40.140625 Z M 587.847656 43.074219 C 586.722656 43.605469 585.824219 44.398438 585.160156 45.449219 C 585.015625 45.65625 584.773438 46.070312 584.699219 46.214844 C 586.355469 45.523438 587.859375 45.253906 589.765625 43.714844 C 590.390625 43.199219 590.941406 42.613281 591.417969 41.960938 C 590.207031 42.257812 589.015625 42.628906 587.847656 43.074219 Z M 592.285156 40.476562 Z M 592.320312 40.011719 Z M 592.320312 40.011719 " fill-opacity="1" fill-rule="evenodd"/><g clip-path="url(#cbdec8a18d)"><path fill="#ffde59" d="M 585.703125 50.640625 C 589.449219 50.640625 592.265625 52.859375 594.679688 53.753906 C 594.90625 53.757812 595.109375 53.828125 595.28125 53.972656 C 595.460938 54.117188 595.574219 54.300781 595.625 54.519531 C 595.660156 54.71875 595.628906 54.90625 595.53125 55.078125 C 595.4375 55.253906 595.300781 55.382812 595.117188 55.464844 C 594.96875 55.535156 594.8125 55.582031 594.648438 55.613281 C 593.558594 55.855469 591.347656 56.433594 589.851562 56.480469 C 587.894531 56.535156 586.066406 55.710938 584.503906 54.597656 C 583.542969 53.859375 582.625 53.078125 581.746094 52.242188 L 581.578125 51.882812 C 581.660156 51.710938 581.710938 51.535156 581.738281 51.351562 C 582.125 51.097656 582.007812 51.140625 582.375 51.058594 C 583.46875 50.800781 584.582031 50.660156 585.703125 50.640625 Z M 594.324219 55.660156 Z M 583.140625 51.984375 C 584.59375 53.136719 586.117188 54.289062 587.945312 54.738281 C 589.480469 55.121094 590.492188 54.84375 592.097656 54.46875 C 588.753906 52.648438 587.046875 51.554688 583.140625 51.984375 Z M 594.28125 53.902344 Z M 594.28125 53.902344 Z M 594.636719 53.734375 Z M 594.636719 53.734375 " fill-opacity="1" fill-rule="evenodd"/></g><path fill="#ffde59" d="M 569.558594 58.382812 C 570.554688 58.382812 571.542969 58.464844 572.523438 58.644531 C 574 58.917969 575.429688 59.335938 576.824219 59.902344 C 577.453125 60.097656 578.058594 60.351562 578.636719 60.671875 C 578.917969 60.804688 579.113281 61.019531 579.21875 61.316406 C 579.335938 61.820312 579.066406 62.308594 578.332031 62.445312 C 576.566406 62.867188 576.003906 63.546875 572.875 63.621094 C 571.992188 63.648438 571.128906 63.542969 570.28125 63.296875 C 568.074219 62.574219 566.972656 61.089844 564.652344 60.53125 L 564.296875 60.3125 C 564.21875 60 564.25 60.058594 564.171875 59.992188 C 564.160156 59.863281 564.160156 59.734375 564.171875 59.609375 L 564.464844 59.328125 C 565.652344 58.824219 566.890625 58.523438 568.179688 58.4375 C 568.777344 58.386719 569.402344 58.378906 569.558594 58.382812 Z M 578.183594 62.460938 Z M 578.183594 62.460938 Z M 567.089844 59.789062 C 566.933594 59.789062 566.21875 59.902344 566.292969 59.902344 C 567.699219 60.453125 568.316406 60.933594 569.640625 61.558594 C 570.695312 62.015625 571.269531 62.183594 572.84375 62.097656 C 573.925781 62.054688 574.96875 61.835938 575.976562 61.4375 C 575.90625 61.40625 575.730469 61.351562 575.59375 61.292969 C 574.839844 60.96875 574.074219 60.695312 573.289062 60.464844 C 572.566406 60.25 571.835938 60.082031 571.101562 59.953125 C 569.777344 59.710938 568.445312 59.652344 567.105469 59.785156 Z M 577.976562 60.765625 Z M 577.976562 60.765625 " fill-opacity="1" fill-rule="evenodd"/><path fill="#ffde59" d="M 452.015625 47.722656 C 452.269531 47.769531 452.527344 47.769531 452.78125 47.722656 C 453.804688 47.636719 454.359375 48.625 453.605469 49.359375 C 452.957031 49.980469 450.734375 51.070312 449.863281 51.5 C 444.140625 54.300781 439.078125 55.273438 433.957031 55.164062 C 433.828125 55.164062 433.707031 55.125 433.601562 55.046875 C 433.539062 55 433.492188 54.945312 433.457031 54.878906 C 433.425781 54.808594 433.40625 54.738281 433.40625 54.664062 C 433.40625 54.585938 433.425781 54.515625 433.457031 54.445312 C 433.492188 54.378906 433.539062 54.324219 433.601562 54.28125 C 436.128906 52.171875 440.011719 49.617188 443.316406 48.367188 C 447.269531 46.859375 448.675781 47.542969 452.015625 47.722656 Z M 446.128906 49.21875 C 442.648438 49.820312 438.574219 52.175781 435.707031 54.046875 C 441.183594 53.664062 445.738281 51.871094 450.390625 49.320312 C 448.570312 49.113281 447.730469 48.945312 446.128906 49.21875 Z M 452.222656 48.203125 Z M 452.222656 48.203125 Z M 452.476562 47.769531 Z M 452.476562 47.769531 " fill-opacity="1" fill-rule="evenodd"/><path fill="#ffde59" d="M 431.90625 36.910156 C 432.652344 36.910156 433.105469 37.441406 432.992188 38.0625 C 432.894531 38.386719 432.757812 38.691406 432.589844 38.988281 C 431.484375 40.824219 430.0625 42.371094 428.328125 43.628906 C 423.378906 47.347656 415.078125 49.472656 408.574219 49.738281 C 408.023438 49.761719 407.828125 49.804688 407.589844 49.527344 C 407.519531 49.429688 407.492188 49.316406 407.503906 49.195312 C 407.941406 49.238281 408.496094 49.292969 407.503906 49.195312 C 407.925781 44.710938 413.089844 40.933594 417.601562 39.007812 C 421.375 37.414062 424.132812 37.179688 428.6875 37.085938 C 431.496094 37.023438 430.5625 37.121094 431.417969 36.96875 C 431.578125 36.933594 431.742188 36.914062 431.90625 36.910156 Z M 423.738281 39.050781 C 418.230469 39.621094 412.546875 42.824219 410.050781 46.089844 C 409.429688 46.867188 408.984375 47.738281 408.71875 48.699219 C 410.953125 48.503906 413.160156 48.136719 415.339844 47.613281 C 421.179688 46.199219 427.574219 43.5 430.613281 38.777344 C 428.285156 38.785156 426.039062 38.816406 423.738281 39.050781 Z M 430.90625 37.066406 Z M 430.90625 37.066406 " fill-opacity="1" fill-rule="evenodd"/><path fill="#ffde59" d="M 407.035156 36.132812 C 407.878906 36.296875 408.144531 37.140625 408.058594 37.917969 C 407.949219 38.832031 407.40625 39.710938 406.960938 40.511719 C 406.457031 41.464844 405.8125 42.292969 405.011719 43.011719 C 402.828125 44.988281 399.933594 45.863281 397.203125 47.328125 C 396.617188 47.640625 396.644531 47.671875 396.371094 47.664062 C 396.238281 47.652344 396.125 47.601562 396.023438 47.511719 C 395.878906 47.375 395.832031 47.214844 395.890625 47.023438 C 396.113281 46.238281 396.382812 45.472656 396.691406 44.71875 C 397.671875 42.304688 399.175781 39.757812 401.40625 38.21875 C 401.996094 37.820312 402.628906 37.503906 403.300781 37.269531 C 404.039062 36.992188 406.238281 36.25 406.757812 36.117188 C 406.851562 36.109375 406.945312 36.117188 407.035156 36.132812 Z M 402.878906 39.304688 C 400.464844 40.597656 398.652344 43.53125 397.554688 45.871094 C 399.984375 44.488281 402.585938 43.46875 404.300781 41.457031 C 404.734375 40.933594 405.09375 40.371094 405.378906 39.761719 C 405.679688 39.238281 405.925781 38.699219 406.125 38.136719 C 405.011719 38.457031 403.925781 38.84375 402.867188 39.304688 Z M 406.183594 37.507812 Z M 406.183594 37.507812 Z M 406.183594 37.507812 Z M 406.183594 37.507812 Z M 406.183594 37.507812 Z M 406.183594 37.507812 " fill-opacity="1" fill-rule="evenodd"/><g clip-path="url(#17bb5d25bf)"><path fill="#ffde59" d="M 376.691406 46.5625 C 376.949219 44.125 377.933594 41.015625 379.59375 38.941406 C 380.300781 38.042969 381.164062 37.335938 382.175781 36.816406 C 383.28125 36.207031 384.78125 35.433594 385.929688 34.855469 C 387.632812 33.992188 387.679688 33.953125 388.125 33.992188 C 388.355469 34.035156 388.550781 34.148438 388.703125 34.332031 C 388.871094 34.535156 388.960938 34.777344 388.984375 35.042969 C 389.140625 36.445312 387.738281 40.210938 387.066406 41.382812 C 386.582031 42.121094 385.992188 42.761719 385.300781 43.300781 C 383.195312 45.015625 380.105469 46.269531 377.421875 47.105469 C 377.292969 47.148438 377.167969 47.148438 377.039062 47.105469 C 376.917969 47.070312 376.816406 46.996094 376.742188 46.894531 C 376.671875 46.792969 376.644531 46.683594 376.664062 46.5625 C 377.121094 46.613281 377.667969 46.667969 376.691406 46.5625 Z M 382.453125 38.550781 C 381.582031 39.089844 380.859375 39.777344 380.277344 40.625 C 379.207031 42.207031 378.445312 43.925781 377.992188 45.785156 C 380.082031 44.949219 382.332031 43.863281 384.027344 42.457031 C 384.644531 41.957031 385.164062 41.371094 385.589844 40.699219 C 386.210938 39.269531 386.6875 37.792969 387.015625 36.265625 C 386.332031 36.597656 382.917969 38.269531 382.453125 38.550781 Z M 382.453125 38.550781 " fill-opacity="1" fill-rule="evenodd"/></g><path fill="#ffde59" d="M 591.855469 46.707031 L 592.121094 47.015625 C 592.121094 47.054688 592.121094 46.878906 592.066406 47.398438 L 591.722656 47.636719 C 591.546875 47.664062 589.804688 48.132812 589.417969 48.242188 C 574.484375 52.390625 559.152344 61.070312 545.675781 64.558594 C 531.917969 68.179688 515.519531 68.359375 501.265625 67.679688 C 493.265625 67.335938 477.316406 66.183594 475.691406 65.996094 C 468.914062 65.285156 461.394531 63.304688 454.761719 61.6875 C 447.554688 60.003906 431.476562 56.753906 423.964844 55.316406 C 404.535156 51.621094 386.113281 49.140625 366.554688 50.101562 C 353.921875 50.742188 345.683594 52.40625 334.335938 54.875 C 328.109375 56.230469 321.582031 57.851562 315.894531 60.550781 C 314.183594 61.355469 312.554688 62.304688 311.007812 63.394531 C 310.914062 63.460938 310.621094 63.671875 310.363281 63.875 L 309.980469 63.992188 L 309.59375 63.824219 L 309.46875 63.457031 L 309.65625 63.117188 C 309.742188 63.058594 309.964844 62.878906 310.328125 62.613281 C 315.234375 58.960938 322.53125 56.582031 328.648438 54.988281 C 332.820312 53.914062 341.484375 52.042969 343.894531 51.558594 C 368 46.71875 390.34375 47.921875 414.765625 51.964844 C 426.816406 53.964844 448.648438 58.464844 455.460938 60.113281 C 473.550781 64.554688 472.398438 64.210938 489.421875 65.421875 C 498.503906 66.054688 503.453125 66.257812 508.589844 66.414062 C 534.453125 67.027344 545.722656 63.976562 559.675781 58.347656 C 569.617188 54.441406 579.152344 49.738281 591.417969 46.667969 Z M 591.855469 46.707031 " fill-opacity="1" fill-rule="evenodd"/><path fill="#ffde59" d="M 555.839844 47.273438 C 556.132812 47.308594 556.367188 47.449219 556.535156 47.699219 C 556.617188 47.835938 556.667969 47.980469 556.679688 48.144531 C 556.746094 48.953125 555.777344 51.5625 555.527344 52.078125 C 553.425781 56.671875 550.375 57.746094 547.761719 60.148438 C 546.867188 60.914062 547.273438 60.695312 546.6875 60.941406 L 546.53125 60.890625 L 546.394531 60.964844 L 546.011719 60.871094 L 545.785156 60.550781 L 545.785156 60.457031 C 545.015625 56.511719 546.882812 52.300781 550.355469 49.875 C 551.835938 48.808594 553.5 48.21875 554.449219 47.769531 C 555.441406 47.257812 555.480469 47.261719 555.839844 47.273438 Z M 550.765625 51.660156 C 549.71875 52.46875 548.855469 53.433594 548.167969 54.5625 C 547.214844 56.085938 546.757812 57.742188 546.789062 59.535156 C 547.601562 58.660156 549.367188 57.257812 550.148438 56.582031 C 552.316406 54.710938 553.574219 53 554.519531 49.636719 C 552.894531 50.316406 552.042969 50.6875 550.765625 51.660156 Z M 554.816406 48.300781 Z M 554.816406 48.300781 Z M 554.816406 48.300781 " fill-opacity="1" fill-rule="evenodd"/><path fill="#ffde59" d="M 565.390625 47.214844 C 565.636719 47.199219 565.855469 47.269531 566.042969 47.425781 C 566.230469 47.585938 566.339844 47.792969 566.367188 48.035156 C 566.441406 49.359375 566.125 50.585938 565.417969 51.710938 C 564.429688 53.277344 561.917969 55.324219 560.398438 56.484375 C 559.304688 57.300781 559.246094 57.332031 559.0625 57.371094 C 558.925781 57.398438 558.800781 57.375 558.679688 57.3125 C 558.566406 57.253906 558.484375 57.164062 558.4375 57.042969 C 558.410156 56.988281 558.398438 56.929688 558.402344 56.871094 C 558.335938 55.734375 558.417969 54.609375 558.648438 53.496094 C 558.945312 51.828125 559.6875 50.390625 560.875 49.1875 C 561.507812 48.570312 562.238281 48.105469 563.058594 47.792969 C 563.800781 47.460938 564.582031 47.273438 565.390625 47.214844 Z M 559.890625 54.421875 C 559.863281 54.550781 559.660156 55.449219 559.660156 55.574219 C 560.769531 54.605469 561.816406 53.570312 562.796875 52.464844 C 563.839844 51.214844 564.28125 50.632812 564.476562 49.128906 C 561.816406 49.890625 560.550781 51.875 559.890625 54.421875 Z M 564.5 48.230469 Z M 564.5 48.230469 " fill-opacity="1" fill-rule="evenodd"/><path fill="#ffde59" d="M 540.585938 51.34375 C 541.214844 51.816406 541.300781 52.546875 541.269531 53.261719 C 541.207031 54.019531 541.089844 54.765625 540.917969 55.5 C 540.644531 56.953125 540.097656 58.296875 539.28125 59.53125 C 538.785156 60.28125 538.21875 60.980469 537.578125 61.621094 C 536.847656 62.359375 536.058594 63.019531 535.199219 63.601562 L 534.785156 63.707031 C 534.398438 63.523438 534.503906 63.5625 534.335938 63.53125 L 534.089844 63.21875 C 533.71875 61.996094 533.539062 60.746094 533.558594 59.46875 C 533.648438 57.25 534.359375 55.421875 536.125 53.550781 C 536.707031 52.96875 538.601562 51.328125 539.585938 51.128906 C 539.949219 51.050781 540.28125 51.125 540.585938 51.34375 Z M 539.433594 53.140625 C 538.894531 53.5 538.199219 54.054688 537.683594 54.476562 C 536.890625 55.195312 536.25 56.027344 535.761719 56.972656 C 535.558594 57.371094 535.398438 57.785156 535.273438 58.210938 C 534.902344 59.578125 534.832031 60.953125 535.066406 62.347656 C 536.238281 61.355469 537.214844 60.195312 537.980469 58.867188 C 538.339844 58.238281 538.628906 57.578125 538.847656 56.890625 C 539.117188 55.980469 539.296875 55.054688 539.382812 54.109375 C 539.421875 53.785156 539.441406 53.460938 539.433594 53.140625 Z M 539.363281 52.617188 Z M 539.363281 52.617188 Z M 539.363281 52.617188 " fill-opacity="1" fill-rule="evenodd"/><path fill="#ffde59" d="M 556.507812 65.28125 C 557.457031 65.484375 558.375 65.785156 559.269531 66.171875 C 560.832031 66.878906 561.511719 67.417969 562.960938 68.546875 C 563.207031 68.746094 563.277344 68.75 563.429688 69.003906 C 563.519531 69.222656 563.53125 69.445312 563.457031 69.667969 C 563.382812 69.894531 563.246094 70.066406 563.042969 70.1875 C 562.699219 70.417969 562.328125 70.585938 561.925781 70.691406 C 560.992188 70.945312 560.050781 71.136719 559.085938 71.253906 C 557.992188 71.351562 556.90625 71.304688 555.828125 71.097656 C 552.171875 70.355469 550.792969 67.996094 547.339844 67.03125 L 547.007812 66.785156 L 547.007812 66.691406 L 546.714844 66.640625 L 546.46875 66.339844 L 546.539062 65.957031 L 546.875 65.722656 C 547.183594 65.730469 551.507812 64.199219 556.507812 65.28125 Z M 549.675781 66.34375 L 548.976562 66.417969 C 552.464844 67.660156 554.234375 70.257812 558.886719 69.640625 C 559.867188 69.492188 560.828125 69.257812 560.914062 69.214844 C 560.449219 68.847656 559.964844 68.503906 559.457031 68.191406 C 558.617188 67.707031 557.734375 67.316406 556.8125 67.027344 C 554.480469 66.300781 552.101562 66.070312 549.675781 66.34375 Z M 561.839844 68.886719 Z M 561.839844 68.886719 Z M 561.839844 68.886719 " fill-opacity="1" fill-rule="evenodd"/><path fill="#ffde59" d="M 490.972656 54.21875 C 491.332031 54.195312 491.609375 54.332031 491.800781 54.632812 C 491.996094 54.933594 492.007812 55.242188 491.839844 55.554688 C 491.617188 56.039062 491.316406 56.46875 490.953125 56.851562 C 490.582031 57.257812 489.414062 58.390625 488.707031 58.96875 C 486.882812 60.476562 484.8125 61.488281 482.503906 62.003906 C 479.96875 62.597656 477.558594 62.726562 474.792969 62.996094 C 474.578125 62.996094 474.855469 63.058594 474.246094 62.902344 L 474.035156 62.570312 L 473.988281 62.507812 L 474.0625 62.121094 C 476.015625 59.242188 478.601562 56.90625 482.054688 55.644531 C 482.894531 55.335938 483.753906 55.089844 484.632812 54.917969 C 486.484375 54.5625 488.351562 54.363281 490.238281 54.3125 C 490.570312 54.296875 490.632812 54.21875 490.972656 54.21875 Z M 485 56.523438 C 484.203125 56.65625 483.425781 56.839844 482.65625 57.082031 C 482.351562 57.175781 482.039062 57.292969 481.886719 57.347656 C 479.425781 58.308594 477.347656 59.804688 475.65625 61.839844 C 477.820312 61.601562 479.964844 61.21875 482.078125 60.6875 C 484.105469 60.15625 485.914062 59.195312 487.496094 57.808594 C 487.898438 57.441406 488.894531 56.46875 489.25 56.09375 C 487.828125 56.144531 486.417969 56.285156 485.015625 56.519531 Z M 490.378906 54.3125 Z M 490.378906 54.3125 Z M 490.378906 54.3125 " fill-opacity="1" fill-rule="evenodd"/><path fill="#ffde59" d="M 455.605469 63.800781 C 459.691406 65.125 465.632812 67.523438 468.242188 70.65625 C 468.5625 71.039062 468.84375 71.453125 469.078125 71.898438 L 469.117188 71.960938 C 469.210938 72.128906 470.269531 73.675781 470.535156 74.199219 C 470.789062 74.648438 471.023438 75.15625 470.867188 75.605469 C 470.820312 75.753906 470.738281 75.882812 470.625 75.988281 C 470.15625 76.34375 469.855469 76.253906 469.085938 76.089844 C 467.125 75.648438 465.222656 75.015625 463.386719 74.199219 C 458.945312 72.019531 457.875 68.5 455.441406 65.222656 C 454.859375 64.453125 454.820312 64.523438 454.800781 64.238281 C 454.804688 64.113281 454.851562 64.003906 454.9375 63.914062 C 455.003906 63.847656 455.085938 63.796875 455.175781 63.769531 C 455.304688 63.730469 455.433594 63.730469 455.558594 63.769531 Z M 464.179688 72.789062 C 465.539062 73.34375 466.9375 73.792969 468.367188 74.144531 C 468.292969 74.023438 467.601562 72.992188 467.488281 72.769531 C 467.1875 72.15625 466.804688 71.605469 466.335938 71.109375 C 464.128906 68.804688 460.109375 66.757812 457.082031 65.480469 C 459.101562 68.132812 460.429688 71.136719 464.179688 72.789062 Z M 464.179688 72.789062 " fill-opacity="1" fill-rule="evenodd"/><path fill="#ffde59" d="M 504.605469 57.234375 C 505.222656 56.972656 505.855469 56.746094 506.503906 56.5625 C 507.464844 56.3125 508.707031 55.902344 510.011719 55.6875 C 510.402344 55.597656 510.769531 55.660156 511.105469 55.878906 C 511.261719 56 511.371094 56.148438 511.433594 56.335938 C 511.496094 56.519531 511.5 56.707031 511.449219 56.894531 C 511.328125 57.570312 509.984375 59.480469 509.59375 59.988281 C 508.609375 61.261719 506.71875 62.195312 505.132812 62.71875 C 502.863281 63.445312 500.546875 63.90625 498.175781 64.105469 C 497.8125 64.132812 497.84375 64.136719 497.671875 64.105469 C 497.558594 64.0625 497.46875 63.988281 497.40625 63.882812 C 497.277344 63.691406 497.292969 63.503906 497.445312 63.328125 C 499.371094 60.71875 501.535156 58.574219 504.605469 57.234375 Z M 508.988281 57.664062 C 506.167969 58.332031 504.546875 58.738281 502.238281 60.3125 C 501.488281 60.84375 500.777344 61.429688 500.113281 62.066406 C 499.882812 62.273438 499.515625 62.644531 499.304688 62.859375 C 500.964844 62.566406 502.582031 62.132812 504.164062 61.554688 C 505.53125 61.03125 506.699219 60.484375 507.726562 59.527344 C 507.96875 59.285156 508.179688 59.019531 508.359375 58.726562 C 509.128906 57.519531 509.054688 57.644531 508.980469 57.664062 Z M 509.605469 56.566406 Z M 509.605469 56.566406 " fill-opacity="1" fill-rule="evenodd"/><path fill="#ffde59" d="M 483.886719 68.230469 C 486.921875 68.734375 490.519531 69.582031 492.894531 71.351562 C 494.066406 72.316406 495.167969 73.351562 496.203125 74.460938 C 496.417969 74.65625 496.570312 74.894531 496.660156 75.175781 C 496.714844 75.429688 496.660156 75.660156 496.492188 75.863281 C 496.011719 76.394531 495.28125 76.394531 494.507812 76.394531 C 493.28125 76.355469 492.28125 76.195312 491.585938 76.113281 C 488.964844 75.8125 486.660156 74.796875 484.671875 73.066406 C 483.261719 71.882812 480.445312 68.976562 480.128906 68.804688 C 479.96875 68.65625 479.890625 68.609375 479.867188 68.363281 C 479.867188 68.242188 479.90625 68.136719 479.984375 68.042969 C 480.113281 67.894531 480.277344 67.832031 480.476562 67.847656 C 481.226562 67.898438 482.609375 68.035156 483.886719 68.230469 Z M 482.214844 69.152344 C 486.582031 72.972656 487.875 74.390625 493.910156 74.683594 C 493.644531 74.414062 492.488281 73.269531 492.089844 72.90625 C 490.996094 72.019531 489.792969 71.332031 488.472656 70.84375 C 486.441406 70.085938 484.355469 69.519531 482.21875 69.140625 Z M 495.230469 74.652344 Z M 495.230469 74.652344 Z M 495.230469 74.652344 Z M 495.230469 74.652344 " fill-opacity="1" fill-rule="evenodd"/><path fill="#ffde59" d="M 324.300781 45.253906 C 325.070312 45.296875 325.382812 45.941406 325.367188 46.640625 C 325.332031 47.792969 324.511719 48.90625 323.917969 50.21875 C 322.289062 53.761719 319.914062 56.316406 315.847656 58.367188 C 315.515625 58.535156 315.441406 58.585938 315.195312 58.570312 C 315.066406 58.554688 314.957031 58.503906 314.867188 58.417969 C 314.800781 58.351562 314.757812 58.277344 314.730469 58.1875 C 314.722656 58.132812 314.722656 58.074219 314.730469 58.019531 C 315.175781 58.0625 315.726562 58.113281 314.730469 58.019531 C 314.964844 55.109375 315.914062 51.105469 317.859375 48.742188 C 319.339844 46.976562 321.191406 46.4375 323.289062 45.667969 C 323.574219 45.410156 323.914062 45.269531 324.300781 45.253906 Z M 320.179688 48.894531 C 317.875 50.488281 316.605469 54.417969 316.042969 57 C 318.246094 55.691406 319.992188 53.929688 321.289062 51.714844 C 321.734375 50.917969 322.121094 50.089844 322.441406 49.234375 C 322.640625 48.761719 323.039062 48.046875 323.257812 47.507812 C 322.171875 47.839844 321.144531 48.296875 320.179688 48.894531 Z M 323.492188 46.519531 Z M 323.265625 45.667969 Z M 323.265625 45.667969 " fill-opacity="1" fill-rule="evenodd"/><g clip-path="url(#5f61657e69)"><path fill="#ffde59" d="M 512.914062 69.863281 C 512.929688 69.734375 512.988281 69.632812 513.085938 69.554688 C 513.46875 69.277344 513.402344 69.417969 516.113281 69.9375 C 519.3125 70.625 520.703125 71.179688 523.246094 73.007812 C 524.507812 73.976562 525.476562 75.183594 526.136719 76.632812 C 526.199219 76.78125 526.226562 76.933594 526.222656 77.09375 C 526.210938 77.355469 526.101562 77.570312 525.890625 77.734375 C 525.703125 77.867188 525.496094 77.941406 525.265625 77.945312 C 524.078125 78.066406 522.851562 77.804688 521.609375 77.535156 C 519.875 77.210938 518.109375 75.933594 516.902344 74.765625 C 515.457031 73.371094 514.160156 71.851562 513.019531 70.195312 C 512.941406 70.101562 512.90625 69.988281 512.914062 69.863281 Z M 524.367188 77.207031 Z M 517.027344 72.898438 C 518.042969 73.832031 519.835938 75.269531 521.199219 75.707031 C 521.339844 75.757812 521.480469 75.800781 521.621094 75.835938 C 521.695312 75.859375 523.332031 76.160156 523.851562 76.21875 C 523.546875 75.734375 523.199219 75.28125 522.8125 74.851562 C 522.328125 74.269531 520.894531 73.203125 519.769531 72.546875 C 518.328125 71.714844 516.625 71.285156 515.019531 70.855469 C 515.222656 71.167969 516.550781 72.457031 517.027344 72.898438 Z M 517.027344 72.898438 " fill-opacity="1" fill-rule="evenodd"/></g></svg>